<svg width="400" height="390" viewBox="0 0 400 390" fill="none" xmlns="http://www.w3.org/2000/svg">
<g clip-path="url(#clip0_178_4120)">
<rect width="399" height="389.915" transform="translate(0.5)" fill="#FDF7F2"/>
<circle cx="122.054" cy="233.476" r="89.5751" fill="#FFD9A0"/>
<path d="M255.78 134.809C243.789 142.258 223.802 160.427 223.802 160.427L205.451 227.662L240.7 284.706L320.827 275.621C320.827 275.621 338.234 256.08 343.72 240.736C350.749 221.079 350.476 207.644 345.719 187.318C338.749 157.537 317.375 126.814 299.75 123.907C282.126 121 267.772 127.359 255.78 134.809Z" fill="#FFD9A0"/>
<path d="M124.597 257.097C127.579 263.801 136.043 271.996 136.043 271.996L208.358 265.455L261.594 263.275C261.594 263.275 261.318 255.655 259.777 251.102C257.795 245.245 255.622 242.19 251.419 237.656C248.368 234.365 245.531 233.713 242.516 230.388C239.277 226.817 236.805 224.746 235.793 220.032C235.198 217.257 233.976 213.128 233.976 213.128L224.892 211.129L160.754 215.671L134.771 223.666C134.771 223.666 127.431 228.114 124.597 232.569C122.559 235.771 121.686 237.897 121.144 241.653C120.262 247.77 122.085 251.451 124.597 257.097Z" fill="#4F100B"/>
<rect x="170.202" y="239.195" width="35.0128" height="27.6141" transform="rotate(-9.09593 170.202 239.195)" fill="#F5AD85"/>
<path d="M172.382 253.464L170.565 242.38L203.452 237.656C203.452 237.656 192.875 251.645 182.921 253.464C179.012 254.178 172.382 253.464 172.382 253.464Z" fill="#AD5251"/>
<ellipse cx="183.647" cy="205.859" rx="32.7049" ry="40.1544" fill="#F5B087"/>
<circle cx="157.665" cy="211.675" r="9.99317" fill="#E4866D"/>
<path d="M157.847 188.29C157.847 188.29 161.299 184.24 166.568 184.785C171.837 185.33 176.016 189.562 176.016 189.562" stroke="#300000" stroke-width="0.90847" stroke-linecap="round"/>
<path d="M164.388 191.954C162.358 192.647 160.391 194.413 160.391 194.413L163.479 195.867L168.385 197.502L174.199 195.225C174.199 195.225 171.048 191.875 168.385 191.591C166.888 191.431 165.812 191.468 164.388 191.954Z" fill="#E8826B"/>
<path d="M173.836 195.504C173.836 195.504 169.824 197.539 167.113 197.321C164.108 197.08 160.209 193.869 160.209 193.869" stroke="#300000" stroke-width="0.90847" stroke-linecap="round"/>
<path d="M216.897 147.174C216.897 147.174 237.356 157.712 242.88 168.069C248.403 178.425 239.383 206.66 239.428 210.585C239.472 214.511 239.474 216.794 240.518 220.578C243.262 230.528 252.8 231.608 257.597 240.746C260.176 245.658 261.462 248.599 262.684 254.01C264.561 262.315 262.684 275.813 262.684 275.813" stroke="#4F100B" stroke-width="1.09016"/>
<path d="M211.628 188.055C213.094 193.171 214.172 199.502 214.172 199.502C214.172 199.502 217.94 213.97 223.257 221.668C225.802 225.354 227.163 227.65 230.706 230.39C236.814 235.112 250.147 236.385 250.147 236.385C250.147 236.385 237.26 227.095 235.43 218.398C233.886 211.057 237.647 206.901 238.882 199.502C240.134 191.999 242.803 187.781 241.789 180.242C240.753 172.534 237.965 168.48 233.597 162.131L233.431 161.891C228.484 154.697 224.737 151.063 217.442 146.265C209.019 140.724 203.326 137.996 193.277 137.181C185.426 136.543 180.562 136.875 173.291 139.906C165.056 143.338 161.568 147.751 155.666 154.441C148.389 162.692 144.115 168.103 141.494 178.788C139.718 186.033 141.795 190.506 140.586 197.866C139.229 206.129 138.605 208.26 135.498 216.036C133.786 220.321 128.856 224.415 125.869 229.299C122.032 235.57 120.963 242.745 120.963 242.745C120.963 242.745 122.515 237.593 124.052 235.114C127.429 229.664 132.918 230.477 138.587 227.482C145.267 223.954 150.216 223.63 155.666 218.398C158.697 215.489 160.504 213.698 162.207 209.858C164.687 204.266 163.298 194.232 163.298 194.232L162.207 178.788C162.207 178.788 167.73 173.87 172.927 171.339C181.412 167.208 187.67 167.674 196.366 171.339C204.92 174.944 209.072 179.131 211.628 188.055Z" fill="#911A14"/>
<ellipse cx="217.987" cy="210.22" rx="9.62978" ry="10.7199" fill="#F5B087"/>
<circle cx="198.364" cy="213.491" r="9.99317" fill="#E4866D"/>
<path d="M176.38 208.405C177.379 204.88 181.104 200.773 181.104 200.773C181.104 200.773 181.246 206.769 181.104 210.403C180.961 214.037 179.832 218.034 177.833 217.853C175.835 217.671 175.381 211.929 176.38 208.405Z" fill="#E06B61"/>
<path d="M174.199 226.21C174.199 226.21 177.47 227.645 179.65 227.482C182.626 227.259 186.373 223.848 186.373 223.848" stroke="#E06B61" stroke-width="0.726776" stroke-linecap="round"/>
<path d="M189.644 191.507C189.644 191.507 195.094 187.692 200.363 188.237C205.633 188.782 207.813 192.779 207.813 192.779" stroke="#300000" stroke-width="0.90847" stroke-linecap="round"/>
<path d="M195.639 194.415C193.609 195.108 191.278 197.686 191.278 197.686L194.731 199.866L199.818 200.593L203.088 199.502L205.45 197.686C205.45 197.686 202.299 194.336 199.636 194.052C198.14 193.892 197.063 193.929 195.639 194.415Z" fill="#E8826B"/>
<path d="M191.097 198.047C191.097 198.047 195.14 200.589 198.183 200.772C201.408 200.967 205.996 198.047 205.996 198.047" stroke="#300000" stroke-width="0.90847" stroke-linecap="round"/>
<path d="M207.631 196.23L206.541 198.047L201.453 200.228L207.631 196.23Z" fill="#300000" stroke="#300000" stroke-width="0.181694" stroke-linecap="round"/>
<path d="M220.713 203.318C218.872 203.321 216.534 205.499 216.534 205.499C216.534 205.499 219.128 205.111 220.713 205.499C223.046 206.068 225.801 208.951 225.801 208.951C225.801 208.951 223.677 203.314 220.713 203.318Z" fill="#AD5251" stroke="#AD5251" stroke-width="0.726776"/>
<path d="M299.387 309.239C292.569 313.585 288.667 318.324 288.667 318.324L295.935 371.742C310.339 368.123 310.107 369.743 326.096 362.839C342.085 355.935 354.788 343.982 362.616 331.224C372.428 315.235 375.335 292.523 375.335 292.523C375.335 292.523 354.625 293.224 341.54 295.249C326.607 297.56 312.129 301.118 299.387 309.239Z" fill="#9E909E"/>
<path d="M299.568 349.575C299.568 349.575 317.822 338.94 328.639 330.86C339.523 322.732 354.985 308.148 354.985 308.148" stroke="white" stroke-width="1.09016"/>
<path d="M275.439 278.466C271.737 283.575 270.264 288.133 270.264 288.133L290.855 324.818C300.271 318.061 300.568 319.304 310.192 309.708C319.817 300.113 325.609 287.796 327.632 276.292C330.169 261.875 325.766 244.558 325.766 244.558C325.766 244.558 310.936 251.004 302.021 256.226C291.846 262.185 282.358 268.918 275.439 278.466Z" fill="#9E909E"/>
<path d="M287.137 307.688C287.137 307.688 297.335 294.736 302.87 285.771C308.438 276.751 315.478 261.733 315.478 261.733" stroke="white" stroke-width="1.09016"/>
<path d="M103.255 330.8C110.71 333.93 115.357 337.941 115.357 337.941L117.227 391.818C102.418 390.688 102.921 392.245 85.9943 388.144C69.0679 384.043 54.5269 374.41 44.6538 363.16C32.2799 349.06 25.5742 327.167 25.5742 327.167C25.5742 327.167 46.1046 324.355 59.3434 324.138C74.4517 323.892 89.3232 324.95 103.255 330.8Z" fill="#9E909E"/>
<path d="M109.897 370.586C109.897 370.586 90.1079 363.19 78.0797 357.056C65.9785 350.885 48.273 339.127 48.273 339.127" stroke="white" stroke-width="1.09016"/>
<path d="M116.576 288.886C121.604 292.697 124.34 296.63 124.34 296.63L115.312 337.718C104.337 333.994 104.415 335.268 92.4152 328.888C80.4154 322.508 71.2906 312.408 66.0077 301.991C59.3868 288.935 58.5607 271.086 58.5607 271.086C58.5607 271.086 74.6246 272.939 84.6738 275.342C96.142 278.083 107.178 281.765 116.576 288.886Z" fill="#9E909E"/>
<path d="M113.885 320.248C113.885 320.248 100.36 310.823 92.4569 303.855C84.5056 296.845 73.4007 284.526 73.4007 284.526" stroke="white" stroke-width="1.09016"/>
<path d="M269.407 263.454C269.407 263.454 279.405 243.797 282.671 230.204C285.243 219.498 286.123 202.223 286.123 202.223" stroke="#9E909E" stroke-width="1.09016"/>
<path d="M285.77 203.131L285.523 203.398L285.837 203.688L286.073 203.332L285.77 203.131ZM285.77 203.131C286.073 203.332 286.073 203.332 286.073 203.332L286.073 203.332L286.074 203.331L286.077 203.327L286.085 203.314L286.118 203.263C286.146 203.219 286.188 203.155 286.239 203.072C286.343 202.905 286.488 202.665 286.66 202.365C287.002 201.766 287.448 200.928 287.86 199.973C288.271 199.02 288.653 197.941 288.863 196.861C289.072 195.784 289.115 194.682 288.823 193.695C288.802 193.624 288.781 193.553 288.759 193.48C288.39 192.227 287.966 190.792 287.298 189.7C286.942 189.117 286.502 188.608 285.94 188.275C285.371 187.937 284.7 187.794 283.915 187.908C282.479 188.117 281.677 188.999 281.198 190.11C280.775 191.093 280.589 192.294 280.416 193.408C280.399 193.52 280.381 193.631 280.364 193.742C280.19 194.848 280.449 196.01 280.906 197.109C281.365 198.21 282.033 199.276 282.714 200.202C283.396 201.13 284.097 201.927 284.627 202.492C284.892 202.775 285.115 203.001 285.272 203.156C285.351 203.233 285.413 203.293 285.456 203.334C285.477 203.354 285.494 203.37 285.505 203.381L285.518 203.393L285.522 203.396L285.523 203.397L285.523 203.398C285.523 203.398 285.523 203.398 285.77 203.131Z" fill="#E3CDE4" stroke="#9E909E" stroke-width="0.726776"/>
<path d="M286.286 213.976L285.924 213.943L285.886 214.369L286.312 214.338L286.286 213.976ZM286.286 213.976C286.312 214.338 286.313 214.338 286.313 214.338L286.313 214.338L286.314 214.338L286.319 214.338L286.337 214.336L286.402 214.331C286.46 214.326 286.544 214.318 286.651 214.307C286.865 214.285 287.172 214.251 287.548 214.198C288.299 214.093 289.328 213.917 290.436 213.633C291.543 213.35 292.737 212.957 293.816 212.414C294.892 211.872 295.876 211.17 296.534 210.257C296.582 210.192 296.63 210.125 296.678 210.058C297.521 208.891 298.484 207.559 298.984 206.246C299.25 205.546 299.396 204.826 299.309 204.12C299.221 203.405 298.898 202.732 298.275 202.131C297.138 201.032 295.843 200.927 294.561 201.256C293.424 201.548 292.257 202.192 291.169 202.793C291.06 202.853 290.951 202.913 290.843 202.972C289.77 203.561 288.937 204.564 288.289 205.699C287.64 206.837 287.163 208.134 286.815 209.35C286.467 210.567 286.244 211.713 286.109 212.555C286.041 212.976 285.995 213.321 285.966 213.562C285.952 213.683 285.941 213.777 285.934 213.842C285.931 213.874 285.929 213.899 285.927 213.916L285.925 213.936L285.925 213.941L285.924 213.942L285.924 213.943C285.924 213.943 285.924 213.943 286.286 213.976Z" fill="#E3CDE4" stroke="#9E909E" stroke-width="0.726776"/>
<path d="M283.977 213.612L284.339 213.58L284.377 214.006L283.951 213.975L283.977 213.612ZM283.977 213.612C283.951 213.975 283.951 213.975 283.951 213.975L283.951 213.975L283.949 213.975L283.945 213.974L283.927 213.973L283.861 213.967C283.804 213.963 283.72 213.955 283.613 213.944C283.399 213.922 283.092 213.887 282.716 213.835C281.964 213.73 280.935 213.554 279.827 213.27C278.721 212.987 277.526 212.593 276.447 212.05C275.371 211.509 274.387 210.806 273.729 209.894C273.682 209.828 273.634 209.762 273.586 209.695C272.742 208.528 271.779 207.195 271.28 205.883C271.014 205.183 270.868 204.463 270.955 203.757C271.043 203.042 271.366 202.369 271.988 201.768C273.126 200.669 274.421 200.563 275.703 200.893C276.84 201.185 278.007 201.829 279.094 202.43C279.204 202.49 279.313 202.55 279.42 202.609C280.493 203.198 281.327 204.201 281.974 205.336C282.623 206.474 283.1 207.771 283.449 208.987C283.797 210.204 284.019 211.35 284.155 212.191C284.222 212.612 284.268 212.958 284.297 213.199C284.312 213.319 284.322 213.414 284.329 213.478C284.333 213.511 284.335 213.536 284.337 213.553L284.339 213.572L284.339 213.578L284.339 213.579L284.339 213.58C284.339 213.58 284.339 213.58 283.977 213.612Z" fill="#E3CDE4" stroke="#9E909E" stroke-width="0.726776"/>
<path d="M284.032 230.408L283.703 230.253L283.483 230.719L283.996 230.769L284.032 230.408ZM284.032 230.408C283.996 230.769 283.996 230.769 283.996 230.769L283.997 230.77L283.998 230.77L284.004 230.77L284.026 230.772C284.045 230.774 284.073 230.777 284.109 230.78C284.182 230.786 284.288 230.795 284.425 230.804C284.699 230.824 285.093 230.848 285.58 230.867C286.552 230.904 287.895 230.918 289.376 230.827C292.315 230.647 295.889 230.049 298.154 228.312C299.787 227.06 301.491 224.738 302.384 222.399C303.265 220.091 303.422 217.559 301.612 216.112C300.155 214.946 298.672 214.745 297.182 215.136C295.723 215.519 294.265 216.466 292.809 217.559C290.38 219.38 288.102 222.571 286.442 225.271C285.609 226.628 284.925 227.871 284.449 228.776C284.211 229.229 284.025 229.597 283.898 229.852C283.835 229.98 283.787 230.08 283.754 230.148L283.716 230.225L283.707 230.245L283.704 230.251L283.704 230.252L283.703 230.252C283.703 230.252 283.703 230.253 284.032 230.408Z" fill="#E3CDE4" stroke="#9E909E" stroke-width="0.726776"/>
<path d="M277.323 248.977L277.027 248.766L276.728 249.187L277.224 249.327L277.323 248.977ZM277.323 248.977C277.224 249.327 277.224 249.327 277.224 249.327L277.225 249.327L277.226 249.327L277.232 249.329L277.253 249.335C277.271 249.34 277.298 249.347 277.334 249.357C277.404 249.376 277.507 249.403 277.64 249.437C277.906 249.504 278.29 249.597 278.766 249.701C279.716 249.909 281.036 250.159 282.51 250.33C285.435 250.67 289.058 250.71 291.593 249.399C293.421 248.454 295.508 246.468 296.798 244.323C298.072 242.205 298.671 239.741 297.144 237.998C295.915 236.593 294.491 236.135 292.955 236.257C291.451 236.377 289.85 237.054 288.224 237.873C285.513 239.239 282.708 241.979 280.6 244.345C279.541 245.533 278.648 246.637 278.021 247.445C277.707 247.848 277.459 248.178 277.289 248.407C277.204 248.522 277.139 248.611 277.095 248.672L277.044 248.742L277.031 248.76L277.028 248.765L277.027 248.766L277.027 248.766C277.027 248.766 277.027 248.766 277.323 248.977Z" fill="#E3CDE4" stroke="#9E909E" stroke-width="0.726776"/>
<path d="M268.965 268.943L268.677 268.721L268.336 269.161L268.877 269.296L268.965 268.943ZM268.965 268.943C268.877 269.296 268.877 269.296 268.877 269.296L268.877 269.296L268.879 269.296L268.885 269.298L268.908 269.303C268.927 269.308 268.956 269.315 268.994 269.324C269.07 269.342 269.181 269.368 269.324 269.399C269.61 269.463 270.023 269.55 270.535 269.647C271.559 269.84 272.979 270.07 274.568 270.219C277.724 270.514 281.625 270.496 284.37 269.15C286.35 268.178 288.633 266.16 290.06 263.989C290.775 262.902 291.292 261.752 291.434 260.654C291.578 259.545 291.338 258.479 290.529 257.618C289.22 256.228 287.697 255.798 286.055 255.943C284.44 256.086 282.707 256.785 280.937 257.631C277.993 259.039 274.923 261.826 272.607 264.233C271.444 265.44 270.462 266.561 269.772 267.38C269.426 267.79 269.153 268.124 268.966 268.356C268.873 268.473 268.801 268.563 268.752 268.625L268.697 268.696L268.682 268.714L268.679 268.719L268.678 268.72L268.677 268.721C268.677 268.721 268.677 268.721 268.965 268.943Z" fill="#E3CDE4" stroke="#9E909E" stroke-width="0.726776"/>
<path d="M281.226 230.278L281.587 230.238L281.637 230.695L281.181 230.638L281.226 230.278ZM281.226 230.278C281.181 230.638 281.181 230.638 281.181 230.638L281.18 230.638L281.179 230.638L281.175 230.638L281.158 230.636L281.096 230.627C281.043 230.62 280.964 230.609 280.862 230.593C280.658 230.562 280.364 230.515 279.998 230.447C279.266 230.312 278.244 230.097 277.085 229.776C274.775 229.137 271.887 228.072 269.661 226.365C268.022 225.108 266.538 222.914 265.87 220.7C265.205 218.497 265.316 216.135 267.098 214.71C268.542 213.554 269.932 213.295 271.347 213.641C272.725 213.979 274.098 214.886 275.551 215.975C276.795 216.908 277.787 218.28 278.575 219.786C279.365 221.295 279.961 222.961 280.406 224.504C280.851 226.049 281.146 227.481 281.329 228.525C281.421 229.048 281.486 229.475 281.527 229.771C281.547 229.92 281.562 230.036 281.572 230.115C281.577 230.154 281.581 230.185 281.583 230.206L281.586 230.229L281.587 230.236L281.587 230.237L281.587 230.238C281.587 230.238 281.587 230.238 281.226 230.278Z" fill="#E3CDE4" stroke="#9E909E" stroke-width="0.726776"/>
<path d="M275.546 248.615L275.906 248.662L275.854 249.059L275.465 248.969L275.546 248.615ZM275.546 248.615C275.465 248.969 275.465 248.969 275.465 248.969L275.464 248.969L275.463 248.969L275.458 248.968L275.439 248.963C275.434 248.962 275.427 248.961 275.42 248.959C275.406 248.956 275.389 248.951 275.369 248.947C275.308 248.932 275.219 248.909 275.105 248.88C274.876 248.82 274.547 248.73 274.143 248.609C273.334 248.366 272.222 247.995 271.007 247.485C268.59 246.471 265.707 244.879 264.027 242.592C262.829 240.96 261.711 238.664 261.381 236.554C261.216 235.498 261.244 234.46 261.585 233.568C261.931 232.664 262.591 231.934 263.636 231.502C265.377 230.784 267.261 231.09 268.96 231.921C270.659 232.753 272.212 234.125 273.332 235.617C275.174 238.071 275.807 241.351 275.99 243.977C276.082 245.296 276.061 246.465 276.018 247.304C275.996 247.723 275.968 248.061 275.946 248.295C275.935 248.412 275.925 248.503 275.918 248.565C275.916 248.584 275.914 248.6 275.912 248.613C275.911 248.622 275.91 248.63 275.91 248.636L275.907 248.655L275.907 248.66L275.906 248.662L275.906 248.662C275.906 248.662 275.906 248.662 275.546 248.615Z" fill="#E3CDE4" stroke="#9E909E" stroke-width="0.726776"/>
<path d="M266.337 263.215L266.697 263.262L266.645 263.658L266.256 263.569L266.337 263.215ZM266.337 263.215C266.256 263.569 266.256 263.569 266.256 263.569L266.255 263.569L266.254 263.569L266.249 263.567L266.23 263.563C266.225 263.562 266.218 263.56 266.211 263.558C266.197 263.555 266.18 263.551 266.16 263.546C266.099 263.531 266.01 263.509 265.896 263.479C265.667 263.42 265.338 263.33 264.934 263.208C264.125 262.965 263.013 262.595 261.798 262.085C259.381 261.07 256.498 259.479 254.818 257.191C253.62 255.559 252.502 253.264 252.172 251.154C252.007 250.098 252.035 249.059 252.376 248.168C252.722 247.264 253.382 246.533 254.427 246.102C256.168 245.384 258.052 245.69 259.751 246.521C261.45 247.352 263.003 248.725 264.123 250.217C265.965 252.671 266.598 255.951 266.781 258.577C266.873 259.896 266.852 261.064 266.809 261.903C266.787 262.323 266.759 262.661 266.737 262.895C266.726 263.011 266.716 263.102 266.709 263.164C266.707 263.183 266.705 263.2 266.703 263.213C266.702 263.222 266.701 263.229 266.701 263.236L266.698 263.255L266.698 263.26L266.697 263.261L266.697 263.262C266.697 263.262 266.697 263.262 266.337 263.215Z" fill="#E3CDE4" stroke="#9E909E" stroke-width="0.726776"/>
<path d="M305.103 380.036C305.103 380.036 325.273 371.119 336.394 362.648C345.152 355.976 356.751 343.143 356.751 343.143" stroke="#9E909E" stroke-width="1.09016"/>
<path d="M355.903 343.624L355.543 343.674L355.602 344.097L356.011 343.971L355.903 343.624ZM355.903 343.624C356.011 343.971 356.011 343.971 356.011 343.971L356.011 343.971L356.012 343.97L356.016 343.969L356.032 343.964L356.089 343.946C356.139 343.93 356.212 343.906 356.304 343.874C356.489 343.81 356.754 343.716 357.076 343.592C357.72 343.344 358.595 342.976 359.518 342.497C360.44 342.018 361.417 341.423 362.262 340.718C363.105 340.016 363.834 339.189 364.232 338.239C364.26 338.171 364.289 338.102 364.318 338.033C364.823 336.828 365.403 335.448 365.575 334.18C365.667 333.503 365.647 332.83 365.423 332.217C365.195 331.595 364.766 331.06 364.085 330.653C362.84 329.908 361.661 330.084 360.588 330.642C359.638 331.137 358.735 331.95 357.898 332.704C357.813 332.78 357.73 332.856 357.646 332.93C356.812 333.678 356.279 334.742 355.939 335.883C355.598 337.026 355.443 338.274 355.385 339.422C355.327 340.572 355.367 341.633 355.42 342.406C355.447 342.793 355.478 343.108 355.501 343.328C355.513 343.437 355.524 343.523 355.531 343.582C355.535 343.611 355.538 343.634 355.54 343.65L355.542 343.667L355.543 343.672L355.543 343.674L355.543 343.674C355.543 343.674 355.543 343.674 355.903 343.624Z" fill="#E3CDE4" stroke="#9E909E" stroke-width="0.726776"/>
<path d="M349.452 352.355L349.192 352.101L348.893 352.407L349.243 352.653L349.452 352.355ZM349.452 352.355C349.243 352.653 349.243 352.653 349.243 352.653L349.243 352.653L349.244 352.654L349.248 352.656L349.263 352.666L349.317 352.704C349.365 352.736 349.434 352.783 349.524 352.842C349.704 352.961 349.964 353.128 350.289 353.325C350.938 353.718 351.846 354.232 352.884 354.712C353.921 355.192 355.095 355.642 356.275 355.903C357.451 356.163 358.657 356.241 359.744 355.949C359.822 355.928 359.901 355.907 359.981 355.886C361.372 355.514 362.96 355.09 364.177 354.388C364.826 354.014 365.393 353.548 365.772 352.946C366.156 352.336 366.331 351.61 366.228 350.751C366.041 349.181 365.104 348.281 363.903 347.726C362.837 347.234 361.525 346.996 360.303 346.774C360.18 346.751 360.058 346.729 359.937 346.707C358.733 346.485 357.453 346.736 356.234 347.206C355.012 347.678 353.822 348.382 352.784 349.104C351.745 349.827 350.848 350.575 350.212 351.142C349.894 351.425 349.64 351.664 349.465 351.832C349.377 351.917 349.31 351.983 349.263 352.029C349.24 352.052 349.223 352.07 349.211 352.082L349.197 352.096L349.193 352.1L349.192 352.101L349.192 352.101C349.192 352.101 349.192 352.101 349.452 352.355Z" fill="#E3CDE4" stroke="#9E909E" stroke-width="0.726776"/>
<path d="M347.891 350.613L348.192 350.817L347.952 351.171L347.641 350.878L347.891 350.613ZM347.891 350.613C347.641 350.878 347.641 350.878 347.641 350.878L347.641 350.877L347.64 350.876L347.636 350.873L347.624 350.861L347.576 350.815C347.535 350.775 347.475 350.716 347.399 350.64C347.247 350.488 347.031 350.267 346.772 349.988C346.256 349.432 345.57 348.646 344.891 347.726C344.212 346.807 343.535 345.747 343.042 344.644C342.55 343.544 342.231 342.379 342.298 341.255C342.303 341.175 342.307 341.093 342.312 341.011C342.396 339.573 342.492 337.932 342.934 336.599C343.17 335.888 343.512 335.238 344.026 334.746C344.546 334.248 345.221 333.93 346.084 333.857C347.66 333.725 348.73 334.461 349.515 335.526C350.212 336.471 350.709 337.708 351.173 338.861C351.22 338.977 351.266 339.092 351.312 339.206C351.771 340.34 351.784 341.644 351.568 342.933C351.352 344.225 350.902 345.532 350.404 346.694C349.905 347.858 349.353 348.887 348.926 349.624C348.712 349.993 348.53 350.29 348.4 350.495C348.335 350.598 348.284 350.678 348.248 350.732C348.23 350.759 348.216 350.78 348.207 350.794L348.196 350.811L348.193 350.815L348.192 350.816L348.192 350.817C348.192 350.817 348.192 350.817 347.891 350.613Z" fill="#E3CDE4" stroke="#9E909E" stroke-width="0.726776"/>
<path d="M337.32 363.666L337.163 363.338L336.698 363.56L337.064 363.924L337.32 363.666ZM337.32 363.666C337.064 363.924 337.064 363.924 337.064 363.924L337.064 363.924L337.065 363.925L337.069 363.929L337.085 363.945C337.099 363.958 337.119 363.978 337.145 364.003C337.197 364.054 337.274 364.128 337.374 364.222C337.574 364.41 337.864 364.678 338.229 365C338.96 365.643 339.992 366.503 341.197 367.368C343.588 369.086 346.736 370.881 349.589 370.966C351.646 371.028 354.434 370.305 356.604 369.056C358.746 367.824 360.467 365.961 359.979 363.696C359.586 361.871 358.564 360.778 357.163 360.14C355.789 359.514 354.061 359.328 352.242 359.254C349.209 359.131 345.426 360.164 342.434 361.208C340.931 361.733 339.615 362.265 338.674 362.665C338.204 362.866 337.827 363.033 337.567 363.151C337.438 363.21 337.337 363.257 337.269 363.288L337.191 363.325L337.171 363.335L337.165 363.337L337.164 363.338L337.164 363.338C337.164 363.338 337.163 363.338 337.32 363.666Z" fill="#E3CDE4" stroke="#9E909E" stroke-width="0.726776"/>
<path d="M320.385 373.819L320.288 373.468L319.791 373.605L320.087 374.027L320.385 373.819ZM320.385 373.819C320.087 374.027 320.087 374.027 320.087 374.027L320.087 374.028L320.088 374.029L320.092 374.034L320.104 374.052C320.115 374.067 320.132 374.09 320.153 374.12C320.196 374.179 320.258 374.265 320.34 374.375C320.503 374.595 320.742 374.91 321.045 375.291C321.651 376.053 322.515 377.081 323.55 378.145C325.602 380.257 328.385 382.578 331.178 383.164C333.192 383.586 336.064 383.366 338.42 382.518C340.745 381.682 342.767 380.151 342.685 377.835C342.619 375.969 341.806 374.714 340.538 373.839C339.297 372.981 337.628 372.494 335.851 372.101C332.886 371.446 328.981 371.798 325.851 372.299C324.28 372.551 322.89 372.843 321.894 373.072C321.396 373.186 320.995 373.285 320.719 373.355C320.581 373.391 320.474 373.419 320.401 373.438L320.318 373.46L320.296 373.466L320.29 373.468L320.289 373.468L320.288 373.468C320.288 373.468 320.288 373.468 320.385 373.819Z" fill="#E3CDE4" stroke="#9E909E" stroke-width="0.726776"/>
<path d="M301.291 384.011L301.209 383.657L300.666 383.783L301 384.229L301.291 384.011ZM301.291 384.011C301 384.229 301 384.229 301 384.229L301 384.23L301.001 384.231L301.005 384.236L301.019 384.254C301.031 384.27 301.049 384.294 301.073 384.325C301.121 384.387 301.19 384.477 301.281 384.592C301.463 384.821 301.728 385.15 302.063 385.549C302.735 386.345 303.69 387.422 304.828 388.541C307.087 390.764 310.122 393.215 313.1 393.906C315.249 394.405 318.293 394.283 320.771 393.502C322.012 393.112 323.139 392.547 323.944 391.786C324.756 391.017 325.244 390.039 325.16 388.861C325.025 386.957 324.116 385.661 322.752 384.736C321.409 383.825 319.625 383.272 317.718 382.81C314.547 382.041 310.406 382.261 307.09 382.662C305.426 382.863 303.957 383.112 302.904 383.31C302.378 383.409 301.955 383.496 301.663 383.558C301.517 383.588 301.404 383.613 301.327 383.63L301.239 383.65L301.217 383.655L301.211 383.657L301.209 383.657L301.209 383.657C301.209 383.657 301.209 383.657 301.291 384.011Z" fill="#E3CDE4" stroke="#9E909E" stroke-width="0.726776"/>
<path d="M335.227 361.792L335.532 361.989L335.283 362.376L334.965 362.043L335.227 361.792ZM335.227 361.792C334.965 362.043 334.965 362.043 334.964 362.043L334.964 362.043L334.963 362.042L334.96 362.039L334.949 362.027L334.906 361.981C334.869 361.941 334.815 361.883 334.746 361.806C334.608 361.654 334.41 361.431 334.169 361.147C333.687 360.58 333.031 359.767 332.335 358.787C330.949 356.832 329.383 354.181 328.737 351.451C328.261 349.442 328.497 346.803 329.378 344.665C330.255 342.538 331.834 340.777 334.115 340.798C335.966 340.815 337.207 341.493 338.084 342.656C338.939 343.788 339.43 345.359 339.867 347.121C340.242 348.631 340.144 350.32 339.803 351.986C339.461 353.654 338.871 355.322 338.24 356.799C337.609 358.278 336.933 359.574 336.415 360.499C336.156 360.963 335.936 361.334 335.781 361.59C335.703 361.718 335.641 361.817 335.599 361.885C335.578 361.918 335.561 361.944 335.55 361.962L335.537 361.982L335.534 361.987L335.533 361.989L335.533 361.989C335.532 361.989 335.532 361.989 335.227 361.792Z" fill="#E3CDE4" stroke="#9E909E" stroke-width="0.726776"/>
<path d="M319.237 372.415L319.486 372.679L319.196 372.954L318.95 372.639L319.237 372.415ZM319.237 372.415C318.95 372.639 318.95 372.638 318.95 372.638L318.95 372.638L318.949 372.637L318.946 372.633L318.934 372.618C318.931 372.613 318.927 372.608 318.922 372.602C318.913 372.591 318.903 372.577 318.891 372.56C318.853 372.51 318.798 372.437 318.728 372.341C318.588 372.151 318.39 371.873 318.153 371.523C317.68 370.824 317.053 369.834 316.433 368.671C315.201 366.358 313.972 363.302 314.116 360.468C314.219 358.446 314.803 355.961 315.88 354.117C316.42 353.194 317.098 352.407 317.925 351.931C318.765 351.449 319.738 351.3 320.821 351.626C322.623 352.17 323.89 353.597 324.681 355.315C325.473 357.033 325.809 359.078 325.735 360.943C325.612 364.008 324.029 366.95 322.512 369.101C321.75 370.182 320.995 371.074 320.431 371.697C320.149 372.008 319.914 372.253 319.749 372.42C319.667 372.503 319.602 372.568 319.557 372.611C319.543 372.625 319.532 372.636 319.522 372.645C319.516 372.651 319.51 372.657 319.505 372.661L319.492 372.674L319.488 372.678L319.487 372.679L319.487 372.679C319.486 372.679 319.486 372.679 319.237 372.415Z" fill="#E3CDE4" stroke="#9E909E" stroke-width="0.726776"/>
<path d="M302.874 377.911L303.123 378.176L302.833 378.45L302.587 378.135L302.874 377.911ZM302.874 377.911C302.587 378.135 302.587 378.135 302.587 378.134L302.587 378.134L302.586 378.133L302.583 378.129L302.571 378.114C302.567 378.109 302.563 378.104 302.559 378.098C302.55 378.087 302.54 378.073 302.527 378.057C302.489 378.006 302.434 377.933 302.365 377.837C302.225 377.647 302.027 377.369 301.79 377.02C301.317 376.32 300.689 375.33 300.07 374.167C298.838 371.854 297.609 368.798 297.753 365.964C297.855 363.942 298.439 361.457 299.517 359.613C300.057 358.69 300.734 357.903 301.562 357.427C302.401 356.945 303.375 356.796 304.457 357.122C306.26 357.666 307.527 359.093 308.318 360.811C309.11 362.529 309.446 364.574 309.371 366.439C309.248 369.504 307.666 372.446 306.149 374.597C305.386 375.678 304.632 376.57 304.068 377.193C303.786 377.504 303.551 377.749 303.386 377.916C303.304 377.999 303.239 378.064 303.194 378.107C303.18 378.121 303.168 378.132 303.159 378.141C303.152 378.148 303.147 378.153 303.142 378.157L303.128 378.171L303.125 378.174L303.124 378.175L303.123 378.175C303.123 378.175 303.123 378.176 302.874 377.911Z" fill="#E3CDE4" stroke="#9E909E" stroke-width="0.726776"/>
<path d="M114.758 392.994C114.758 392.994 92.7583 391.46 79.4207 387.271C68.9165 383.971 53.6479 375.842 53.6479 375.842" stroke="#9E909E" stroke-width="1.09016"/>
<path d="M54.6086 376.004L54.9642 375.929L55.0523 376.348L54.6253 376.367L54.6086 376.004ZM54.6086 376.004C54.6253 376.367 54.6252 376.367 54.6251 376.367L54.6247 376.367L54.6235 376.367L54.6191 376.368L54.6032 376.368L54.5429 376.37C54.4905 376.372 54.414 376.374 54.3161 376.376C54.1205 376.379 53.8392 376.38 53.4941 376.373C52.8044 376.359 51.8566 376.31 50.8257 376.172C49.7961 376.035 48.6744 375.808 47.6406 375.432C46.6096 375.058 45.642 374.527 44.946 373.77C44.8959 373.715 44.8454 373.66 44.7944 373.605C43.91 372.643 42.8964 371.542 42.3036 370.408C41.9872 369.802 41.7767 369.163 41.7797 368.51C41.7827 367.848 42.0048 367.199 42.5063 366.585C43.4241 365.461 44.5931 365.226 45.7922 365.387C46.8532 365.529 47.9786 365.987 49.0226 366.412C49.1279 366.455 49.2324 366.497 49.3359 366.539C50.3743 366.959 51.2376 367.779 51.9447 368.736C52.6536 369.695 53.2238 370.817 53.6682 371.877C54.1133 372.939 54.4367 373.95 54.6488 374.695C54.7549 375.068 54.8335 375.375 54.8856 375.589C54.9116 375.697 54.9311 375.781 54.9442 375.839C54.9507 375.868 54.9556 375.89 54.9589 375.905L54.9627 375.923L54.9638 375.927L54.964 375.929L54.9641 375.929C54.9642 375.929 54.9642 375.929 54.6086 376.004Z" fill="#E3CDE4" stroke="#9E909E" stroke-width="0.726776"/>
<path d="M63.6428 382.024L63.8011 381.697L64.1858 381.883L63.9402 382.233L63.6428 382.024ZM63.6428 382.024C63.9402 382.233 63.9402 382.233 63.9401 382.233L63.9399 382.234L63.9391 382.235L63.9364 382.239L63.9263 382.253L63.8877 382.307C63.8539 382.353 63.8043 382.421 63.7399 382.507C63.6112 382.68 63.4232 382.925 63.1847 383.221C62.7082 383.811 62.0283 384.603 61.2152 385.407C60.403 386.211 59.4513 387.033 58.4308 387.679C57.4128 388.323 56.3047 388.806 55.1837 388.901C55.103 388.908 55.0215 388.915 54.9394 388.922C53.5047 389.045 51.8665 389.186 50.484 388.939C49.7468 388.808 49.0546 388.562 48.4936 388.125C47.9258 387.682 47.5145 387.058 47.319 386.215C46.9618 384.675 47.537 383.51 48.4785 382.58C49.3138 381.755 50.4667 381.085 51.541 380.461C51.6491 380.398 51.7564 380.336 51.8625 380.274C52.9194 379.657 54.2081 379.458 55.5145 379.486C56.8241 379.515 58.1822 379.772 59.4037 380.099C60.627 380.426 61.7244 380.825 62.5154 381.142C62.9113 381.3 63.2313 381.438 63.4529 381.537C63.5637 381.587 63.65 381.626 63.709 381.654C63.7385 381.667 63.7611 381.678 63.7766 381.686L63.7943 381.694L63.7991 381.696L63.8004 381.697L63.8008 381.697C63.801 381.697 63.8011 381.697 63.6428 382.024Z" fill="#E3CDE4" stroke="#9E909E" stroke-width="0.726776"/>
<path d="M64.5183 379.858L64.3043 380.152L64.6497 380.404L64.8426 380.022L64.5183 379.858ZM64.5183 379.858C64.8426 380.022 64.8426 380.022 64.8427 380.022L64.8429 380.022L64.8435 380.02L64.8456 380.016L64.8534 380.001L64.8826 379.941C64.9079 379.889 64.9444 379.814 64.9901 379.716C65.0814 379.522 65.2095 379.24 65.3578 378.89C65.6542 378.192 66.0325 377.219 66.3589 376.123C66.6849 375.028 66.9619 373.801 67.0509 372.597C67.1397 371.395 67.0435 370.191 66.5994 369.157C66.5675 369.082 66.5353 369.007 66.5028 368.931C65.9355 367.608 65.2878 366.097 64.419 364.993C63.9557 364.405 63.413 363.91 62.7627 363.622C62.1044 363.329 61.3609 363.26 60.5254 363.485C58.9978 363.896 58.2415 364.952 57.8647 366.22C57.5305 367.346 57.4829 368.678 57.4385 369.92C57.4341 370.045 57.4297 370.169 57.425 370.291C57.3783 371.515 57.8096 372.745 58.4501 373.884C59.0922 375.026 59.9595 376.102 60.823 377.026C61.6877 377.951 62.5565 378.731 63.2085 379.28C63.5348 379.554 63.8074 379.771 63.9991 379.92C64.095 379.995 64.1706 380.052 64.2226 380.091C64.2486 380.111 64.2687 380.126 64.2824 380.136L64.2983 380.147L64.3025 380.151L64.3037 380.151L64.3041 380.152C64.3042 380.152 64.3043 380.152 64.5183 379.858Z" fill="#E3CDE4" stroke="#9E909E" stroke-width="0.726776"/>
<path d="M78.8943 388.543L78.9301 388.181L79.4431 388.232L79.2228 388.698L78.8943 388.543ZM78.8943 388.543C79.2228 388.698 79.2228 388.698 79.2227 388.698L79.2225 388.699L79.2218 388.7L79.2193 388.705L79.2099 388.725C79.2017 388.742 79.1895 388.767 79.1735 388.8C79.1414 388.866 79.0941 388.962 79.0322 389.084C78.9084 389.328 78.7263 389.679 78.4919 390.106C78.0235 390.959 77.3452 392.118 76.5055 393.342C74.8399 395.77 72.4889 398.527 69.8347 399.577C67.9214 400.333 65.0533 400.601 62.5882 400.164C60.1549 399.732 57.9037 398.565 57.5928 396.268C57.3423 394.419 57.9324 393.044 59.0337 391.967C60.1127 390.912 61.6748 390.15 63.3605 389.463C66.1718 388.316 70.0805 388.003 73.2495 387.969C74.8412 387.951 76.2597 388.004 77.2805 388.062C77.791 388.09 78.2024 388.12 78.4866 388.143C78.6287 388.154 78.7391 388.164 78.8141 388.17L78.8999 388.178L78.9221 388.18L78.9279 388.181L78.9294 388.181L78.9298 388.181C78.93 388.181 78.9301 388.181 78.8943 388.543Z" fill="#E3CDE4" stroke="#9E909E" stroke-width="0.726776"/>
<path d="M98.2717 392.336L98.2433 391.974L98.7573 391.934L98.6225 392.431L98.2717 392.336ZM98.2717 392.336C98.6225 392.431 98.6225 392.432 98.6224 392.432L98.6223 392.432L98.6219 392.434L98.6203 392.439L98.6145 392.46C98.6094 392.479 98.6019 392.506 98.5919 392.541C98.5719 392.611 98.5422 392.714 98.5027 392.845C98.4239 393.107 98.3064 393.485 98.1508 393.946C97.8398 394.868 97.376 396.129 96.7647 397.481C95.5522 400.164 93.7233 403.292 91.2951 404.793C89.5447 405.874 86.7686 406.642 84.2649 406.646C81.7937 406.649 79.3722 405.896 78.662 403.69C78.0899 401.913 78.4289 400.456 79.3236 399.202C80.2001 397.974 81.6038 396.948 83.1422 395.975C85.708 394.352 89.5006 393.356 92.614 392.765C94.1778 392.467 95.5836 392.27 96.5985 392.147C97.1061 392.085 97.5163 392.042 97.8 392.014C97.9419 392 98.0522 391.99 98.1273 391.984L98.2131 391.977L98.2353 391.975L98.2411 391.974L98.2427 391.974L98.2431 391.974C98.2432 391.974 98.2433 391.974 98.2717 392.336Z" fill="#E3CDE4" stroke="#9E909E" stroke-width="0.726776"/>
<path d="M119.693 395.438L119.65 395.077L120.204 395.012L120.041 395.544L119.693 395.438ZM119.693 395.438C120.041 395.544 120.041 395.544 120.041 395.545L120.041 395.545L120.04 395.547L120.038 395.552L120.032 395.575C120.026 395.594 120.017 395.622 120.005 395.66C119.981 395.734 119.946 395.842 119.9 395.981C119.807 396.259 119.67 396.658 119.489 397.147C119.129 398.124 118.595 399.461 117.906 400.9C116.536 403.759 114.515 407.095 111.949 408.757C110.097 409.956 107.192 410.875 104.596 410.983C103.297 411.037 102.044 410.889 101.029 410.447C100.004 410 99.2128 409.246 98.8912 408.108C98.3717 406.272 98.7865 404.744 99.7551 403.411C100.708 402.098 102.199 400.972 103.835 399.889C106.556 398.089 110.525 396.889 113.78 396.139C115.414 395.763 116.88 395.498 117.938 395.327C118.467 395.241 118.894 395.179 119.189 395.138C119.337 395.118 119.452 395.103 119.53 395.093L119.619 395.081L119.642 395.078L119.648 395.078L119.65 395.078L119.65 395.077C119.65 395.077 119.65 395.077 119.693 395.438Z" fill="#E3CDE4" stroke="#9E909E" stroke-width="0.726776"/>
<path d="M80.2266 386.068L80.0067 386.357L80.373 386.636L80.559 386.215L80.2266 386.068ZM80.2266 386.068C80.559 386.215 80.559 386.215 80.5591 386.215L80.5592 386.214L80.5597 386.213L80.5615 386.209L80.5681 386.194L80.5927 386.137C80.6141 386.087 80.6451 386.013 80.6842 385.918C80.7623 385.728 80.8727 385.451 81.0031 385.102C81.2637 384.404 81.6044 383.418 81.9255 382.259C82.5656 379.95 83.1373 376.924 82.8181 374.137C82.5832 372.086 81.4643 369.684 79.9091 367.973C78.3619 366.27 76.2784 365.15 74.1402 365.945C72.4058 366.59 71.4689 367.649 71.0386 369.04C70.6196 370.396 70.6909 372.04 70.8782 373.846C71.0388 375.393 71.7053 376.949 72.5917 378.4C73.4798 379.853 74.6012 381.221 75.6966 382.396C76.7928 383.572 77.8688 384.561 78.6704 385.256C79.0714 385.603 79.4043 385.878 79.6375 386.066C79.7541 386.16 79.8458 386.232 79.9086 386.281C79.9401 386.306 79.9643 386.325 79.9808 386.337L79.9997 386.352L80.0047 386.356L80.0061 386.357L80.0065 386.357C80.0066 386.357 80.0067 386.357 80.2266 386.068Z" fill="#E3CDE4" stroke="#9E909E" stroke-width="0.726776"/>
<path d="M98.8758 390.628L98.7309 390.962L99.0974 391.121L99.2213 390.741L98.8758 390.628ZM98.8758 390.628C99.2213 390.741 99.2213 390.741 99.2213 390.741L99.2215 390.74L99.2219 390.739L99.2235 390.734L99.2293 390.716C99.231 390.711 99.233 390.704 99.2353 390.697C99.2396 390.684 99.2448 390.667 99.2508 390.647C99.2695 390.587 99.2963 390.499 99.3295 390.386C99.3959 390.159 99.4881 389.831 99.5918 389.422C99.7992 388.603 100.053 387.459 100.241 386.154C100.613 383.56 100.732 380.269 99.6334 377.652C98.8498 375.785 97.4561 373.646 95.8161 372.278C94.9951 371.593 94.0905 371.083 93.1505 370.917C92.1972 370.749 91.2312 370.939 90.3238 371.614C88.8129 372.737 88.1067 374.51 87.9457 376.395C87.7846 378.28 88.1633 380.318 88.867 382.046C90.0241 384.887 92.5117 387.117 94.6696 388.624C95.7537 389.382 96.7664 389.965 97.5083 390.359C97.8795 390.556 98.1834 390.706 98.3954 390.807C98.5013 390.857 98.5843 390.896 98.6413 390.922C98.6586 390.929 98.6734 390.936 98.6858 390.942C98.6939 390.945 98.7009 390.948 98.7068 390.951L98.7242 390.959L98.7289 390.961L98.7302 390.961L98.7307 390.962C98.7308 390.962 98.7309 390.962 98.8758 390.628Z" fill="#E3CDE4" stroke="#9E909E" stroke-width="0.726776"/>
<path d="M116.133 390.238L115.988 390.571L116.354 390.73L116.478 390.35L116.133 390.238ZM116.133 390.238C116.478 390.35 116.478 390.35 116.478 390.35L116.478 390.35L116.479 390.348L116.48 390.344L116.486 390.326C116.488 390.32 116.49 390.314 116.492 390.306C116.496 390.293 116.502 390.276 116.508 390.257C116.526 390.197 116.553 390.109 116.586 389.995C116.653 389.769 116.745 389.44 116.849 389.031C117.056 388.213 117.31 387.068 117.498 385.764C117.87 383.169 117.989 379.878 116.89 377.261C116.107 375.394 114.713 373.255 113.073 371.887C112.252 371.202 111.347 370.692 110.407 370.526C109.454 370.358 108.488 370.549 107.581 371.223C106.07 372.347 105.363 374.12 105.202 376.004C105.041 377.889 105.42 379.927 106.124 381.655C107.281 384.496 109.769 386.726 111.926 388.234C113.011 388.991 114.023 389.574 114.765 389.968C115.136 390.165 115.44 390.315 115.652 390.416C115.758 390.467 115.841 390.505 115.898 390.531C115.915 390.539 115.93 390.546 115.943 390.551C115.951 390.555 115.958 390.558 115.964 390.56L115.981 390.568L115.986 390.57L115.987 390.571L115.988 390.571C115.988 390.571 115.988 390.571 116.133 390.238Z" fill="#E3CDE4" stroke="#9E909E" stroke-width="0.726776"/>
<path d="M127.232 280.641C127.232 280.641 110.838 265.891 102.904 254.38C96.6555 245.315 89.6249 229.51 89.6249 229.51" stroke="#9E909E" stroke-width="1.09016"/>
<path d="M90.281 230.23L90.6074 230.389L90.4194 230.773L90.0708 230.526L90.281 230.23ZM90.281 230.23C90.0708 230.526 90.0707 230.526 90.0706 230.526L90.0703 230.526L90.0693 230.525L90.0657 230.522L90.0528 230.513L90.004 230.478C89.9616 230.447 89.9001 230.401 89.822 230.342C89.6658 230.224 89.4432 230.052 89.1756 229.834C88.6409 229.398 87.9239 228.777 87.1961 228.034C86.4692 227.292 85.7251 226.422 85.1413 225.49C84.5592 224.56 84.123 223.547 84.0408 222.521C84.0349 222.447 84.0289 222.373 84.0228 222.298C83.9174 220.996 83.7966 219.504 84.0275 218.245C84.1508 217.573 84.3783 216.94 84.7827 216.427C85.1925 215.907 85.767 215.532 86.5402 215.357C87.9553 215.036 89.0214 215.57 89.8674 216.435C90.616 217.2 91.2211 218.254 91.7824 219.231C91.8391 219.33 91.8952 219.427 91.9511 219.524C92.5113 220.494 92.6868 221.672 92.6551 222.861C92.6233 224.054 92.3825 225.289 92.0802 226.398C91.7774 227.509 91.4099 228.505 91.1186 229.222C90.9727 229.582 90.8456 229.872 90.7547 230.073C90.7092 230.174 90.6727 230.252 90.6475 230.306C90.6348 230.332 90.625 230.353 90.6182 230.367L90.6104 230.383L90.6083 230.388L90.6077 230.389L90.6075 230.389C90.6074 230.389 90.6074 230.389 90.281 230.23Z" fill="#E3CDE4" stroke="#9E909E" stroke-width="0.726776"/>
<path d="M93.6964 240.535L94.0224 240.375L94.2111 240.758L93.8023 240.883L93.6964 240.535ZM93.6964 240.535C93.8023 240.883 93.8022 240.883 93.802 240.883L93.8016 240.883L93.8004 240.883L93.7958 240.885L93.7791 240.89L93.7156 240.908C93.6603 240.924 93.5794 240.947 93.4757 240.976C93.2681 241.032 92.9687 241.11 92.599 241.196C91.86 241.368 90.8367 241.574 89.7008 241.707C88.5663 241.841 87.3101 241.903 86.1081 241.784C84.9093 241.665 83.7388 241.364 82.7966 240.749C82.7288 240.705 82.6603 240.66 82.5912 240.615C81.3847 239.829 80.007 238.932 79.0692 237.886C78.5691 237.329 78.1746 236.709 78.0019 236.019C77.8271 235.321 77.8864 234.576 78.2512 233.792C78.918 232.357 80.0881 231.793 81.4026 231.64C82.5687 231.504 83.8895 231.686 85.1203 231.855C85.2441 231.872 85.367 231.889 85.4888 231.905C86.7019 232.069 87.8401 232.705 88.8523 233.532C89.8669 234.36 90.7785 235.4 91.5403 236.409C92.3031 237.419 92.9226 238.409 93.3511 239.146C93.5656 239.514 93.7327 239.82 93.8465 240.034C93.9034 240.142 93.947 240.226 93.9766 240.284C93.9914 240.313 94.0026 240.335 94.0103 240.351L94.0191 240.368L94.0214 240.373L94.0221 240.374L94.0223 240.375C94.0224 240.375 94.0224 240.375 93.6964 240.535Z" fill="#E3CDE4" stroke="#9E909E" stroke-width="0.726776"/>
<path d="M95.721 239.366L95.3716 239.465L95.4889 239.876L95.8757 239.694L95.721 239.366ZM95.721 239.366C95.8757 239.694 95.8758 239.694 95.8759 239.694L95.8763 239.694L95.8775 239.694L95.8817 239.692L95.8975 239.684L95.957 239.655C96.0088 239.63 96.0842 239.593 96.1801 239.544C96.372 239.447 96.6463 239.304 96.9783 239.12C97.6417 238.752 98.5386 238.218 99.4705 237.555C100.401 236.892 101.375 236.096 102.186 235.201C102.996 234.309 103.661 233.3 103.948 232.212C103.968 232.134 103.989 232.055 104.01 231.975C104.378 230.583 104.797 228.993 104.792 227.589C104.789 226.84 104.666 226.116 104.331 225.488C103.992 224.853 103.448 224.34 102.651 224.003C101.195 223.387 99.9486 223.754 98.8708 224.522C97.9147 225.203 97.0571 226.224 96.258 227.175C96.1776 227.271 96.0978 227.366 96.0185 227.46C95.2289 228.395 94.8115 229.63 94.6153 230.922C94.4186 232.217 94.4397 233.6 94.5518 234.859C94.664 236.12 94.8686 237.27 95.0448 238.103C95.133 238.521 95.2142 238.86 95.2736 239.095C95.3034 239.213 95.3276 239.304 95.3446 239.367C95.353 239.399 95.3597 239.423 95.3643 239.439L95.3696 239.458L95.371 239.463L95.3714 239.465L95.3715 239.465C95.3716 239.465 95.3716 239.465 95.721 239.366Z" fill="#E3CDE4" stroke="#9E909E" stroke-width="0.726776"/>
<path d="M101.707 255.058L101.958 254.795L102.331 255.151L101.87 255.383L101.707 255.058ZM101.707 255.058C101.87 255.383 101.87 255.383 101.87 255.383L101.87 255.383L101.868 255.384L101.863 255.387L101.844 255.396C101.827 255.405 101.801 255.417 101.769 255.433C101.703 255.465 101.607 255.512 101.483 255.57C101.235 255.686 100.875 255.851 100.428 256.043C99.5336 256.427 98.2855 256.923 96.8705 257.371C94.0636 258.259 90.5133 258.986 87.7755 258.179C85.8019 257.598 83.3766 256.044 81.7027 254.182C80.0506 252.344 78.9949 250.038 80.1632 248.037C81.1043 246.425 82.4155 245.704 83.9463 245.534C85.446 245.366 87.1463 245.727 88.8978 246.223C91.8191 247.05 95.0925 249.209 97.6114 251.132C98.8766 252.098 99.962 253.013 100.731 253.686C101.116 254.023 101.422 254.299 101.632 254.492C101.737 254.589 101.818 254.664 101.873 254.716L101.936 254.775L101.952 254.79L101.956 254.794L101.957 254.795L101.958 254.795C101.958 254.795 101.958 254.795 101.707 255.058Z" fill="#E3CDE4" stroke="#9E909E" stroke-width="0.726776"/>
<path d="M114.642 269.975L114.843 269.672L115.273 269.957L114.86 270.266L114.642 269.975ZM114.642 269.975C114.86 270.266 114.86 270.266 114.86 270.266L114.86 270.267L114.859 270.267L114.854 270.271L114.836 270.284C114.821 270.295 114.798 270.312 114.769 270.333C114.71 270.376 114.623 270.439 114.512 270.518C114.288 270.677 113.963 270.902 113.556 271.17C112.744 271.705 111.602 272.413 110.288 273.103C107.681 274.471 104.314 275.811 101.477 275.499C99.4322 275.274 96.7712 274.171 94.7959 272.632C92.8462 271.114 91.4013 269.03 92.1992 266.854C92.8419 265.102 94.0059 264.162 95.4828 263.724C96.9296 263.296 98.6669 263.352 100.478 263.531C103.5 263.831 107.102 265.381 109.92 266.831C111.335 267.559 112.565 268.268 113.44 268.796C113.878 269.06 114.228 269.278 114.469 269.431C114.589 269.508 114.682 269.568 114.746 269.609L114.818 269.656L114.836 269.668L114.841 269.671L114.842 269.672L114.843 269.672C114.843 269.672 114.843 269.672 114.642 269.975Z" fill="#E3CDE4" stroke="#9E909E" stroke-width="0.726776"/>
<path d="M129.619 285.604L129.807 285.293L130.283 285.582L129.827 285.901L129.619 285.604ZM129.619 285.604C129.827 285.901 129.827 285.901 129.827 285.902L129.827 285.902L129.826 285.903L129.82 285.906L129.801 285.92C129.785 285.931 129.76 285.948 129.728 285.97C129.664 286.014 129.569 286.078 129.448 286.159C129.204 286.321 128.849 286.551 128.406 286.825C127.521 287.373 126.277 288.099 124.848 288.809C122.009 290.218 118.362 291.604 115.317 291.334C113.12 291.139 110.264 290.076 108.152 288.563C107.095 287.806 106.199 286.919 105.671 285.946C105.138 284.962 104.979 283.881 105.425 282.787C106.146 281.019 107.413 280.071 108.998 279.616C110.557 279.168 112.425 279.198 114.381 279.351C117.634 279.607 121.5 281.104 124.527 282.517C126.046 283.226 127.365 283.92 128.304 284.435C128.773 284.693 129.148 284.907 129.406 285.057C129.535 285.132 129.635 285.191 129.703 285.231L129.78 285.277L129.8 285.289L129.805 285.292L129.806 285.293L129.807 285.293C129.807 285.293 129.807 285.293 129.619 285.604Z" fill="#E3CDE4" stroke="#9E909E" stroke-width="0.726776"/>
<path d="M104.279 253.928L103.928 254.021L104.045 254.466L104.45 254.248L104.279 253.928ZM104.279 253.928C104.45 254.248 104.451 254.248 104.451 254.248L104.451 254.248L104.452 254.248L104.456 254.246L104.47 254.238L104.525 254.208C104.573 254.181 104.642 254.143 104.732 254.092C104.91 253.99 105.168 253.839 105.485 253.645C106.12 253.255 106.996 252.687 107.962 251.972C109.888 250.545 112.201 248.513 113.664 246.12C114.742 244.358 115.338 241.777 115.166 239.471C114.994 237.177 114.041 235.012 111.867 234.322C110.103 233.763 108.713 234.021 107.518 234.853C106.353 235.663 105.397 237.003 104.433 238.541C103.608 239.86 103.175 241.496 102.981 243.185C102.787 244.877 102.829 246.646 102.969 248.246C103.109 249.847 103.348 251.289 103.552 252.33C103.654 252.851 103.748 253.272 103.816 253.564C103.85 253.71 103.878 253.823 103.897 253.901C103.907 253.939 103.914 253.969 103.919 253.989L103.925 254.012L103.927 254.018L103.927 254.02L103.927 254.021C103.928 254.021 103.928 254.021 104.279 253.928Z" fill="#E3CDE4" stroke="#9E909E" stroke-width="0.726776"/>
<path d="M116.171 269L115.852 269.173L116.043 269.524L116.374 269.301L116.171 269ZM116.171 269C116.374 269.301 116.374 269.301 116.374 269.301L116.375 269.301L116.376 269.3L116.38 269.297L116.396 269.286C116.4 269.283 116.406 269.279 116.412 269.275C116.424 269.267 116.438 269.257 116.455 269.245C116.507 269.21 116.582 269.157 116.678 269.088C116.87 268.95 117.145 268.748 117.478 268.489C118.145 267.972 119.05 267.226 120.001 266.313C121.891 264.498 124.01 261.977 124.755 259.238C125.286 257.285 125.505 254.741 125.054 252.653C124.828 251.608 124.429 250.65 123.791 249.94C123.143 249.221 122.264 248.777 121.134 248.75C119.252 248.705 117.604 249.668 116.317 251.054C115.03 252.441 114.074 254.28 113.565 256.075C112.728 259.026 113.317 262.315 114.09 264.831C114.478 266.095 114.917 267.178 115.259 267.945C115.431 268.329 115.578 268.634 115.683 268.845C115.735 268.95 115.777 269.031 115.806 269.086C115.815 269.103 115.822 269.118 115.829 269.13C115.833 269.137 115.836 269.144 115.839 269.15L115.848 269.167L115.851 269.171L115.851 269.172L115.852 269.173C115.852 269.173 115.852 269.173 116.171 269Z" fill="#E3CDE4" stroke="#9E909E" stroke-width="0.726776"/>
<path d="M130.012 279.314L129.693 279.488L129.883 279.839L130.215 279.615L130.012 279.314ZM130.012 279.314C130.215 279.615 130.215 279.615 130.215 279.615L130.215 279.615L130.217 279.614L130.221 279.611L130.237 279.601C130.241 279.598 130.247 279.594 130.253 279.589C130.265 279.581 130.279 279.572 130.296 279.56C130.347 279.524 130.423 279.471 130.519 279.402C130.711 279.264 130.985 279.062 131.319 278.804C131.986 278.286 132.891 277.541 133.842 276.628C135.732 274.813 137.851 272.291 138.596 269.553C139.127 267.599 139.345 265.056 138.895 262.968C138.669 261.923 138.27 260.964 137.631 260.255C136.984 259.535 136.105 259.091 134.975 259.064C133.092 259.02 131.444 259.982 130.158 261.369C128.871 262.755 127.915 264.594 127.406 266.389C126.569 269.341 127.157 272.629 127.93 275.146C128.319 276.41 128.758 277.493 129.1 278.26C129.271 278.644 129.419 278.949 129.523 279.159C129.576 279.264 129.618 279.345 129.647 279.401C129.655 279.418 129.663 279.432 129.669 279.444C129.674 279.452 129.677 279.459 129.68 279.464L129.689 279.481L129.692 279.486L129.692 279.487L129.692 279.487C129.693 279.487 129.693 279.488 130.012 279.314Z" fill="#E3CDE4" stroke="#9E909E" stroke-width="0.726776"/>
<path d="M166.684 259.903C173.583 258.807 173.219 259.538 173.219 259.538L201.722 255.156C201.722 255.156 215.84 253.515 224.778 253.33C234.418 253.13 244.384 253.513 251.828 254.608C259.271 255.704 262.176 255.156 267.44 259.538C272.705 263.92 276.019 271.637 280.511 279.987C291.599 300.592 293.611 314.264 298.666 337.135C303.369 358.417 306.109 392.457 306.109 392.457H112.039C112.039 392.457 110.472 368.299 111.132 352.837C111.647 340.744 112.054 333.919 114.036 321.981C116.671 306.116 122.024 287.473 124.566 282.178C127.108 276.883 127.471 273.779 134.732 269.032C141.994 264.285 159.785 260.998 166.684 259.903Z" fill="#F99D14"/>
<path d="M281.217 297.246L284.851 320.14C284.851 320.14 285.442 332.237 286.304 339.944C287.318 349.01 289.938 363.019 289.938 363.019" stroke="#915203" stroke-width="0.726776"/>
<path d="M263.592 319.232C263.592 319.232 266.785 333.53 267.407 342.853C267.852 349.508 266.951 353.278 267.407 359.932C267.844 366.289 269.588 376.103 269.588 376.103" stroke="#915203" stroke-width="0.726776"/>
<path d="M155.666 336.856C155.666 336.856 153.702 326.047 153.667 319.05C153.636 312.78 155.121 303.061 155.121 303.061" stroke="#915203" stroke-width="0.726776"/>
<path d="M168.566 374.104C168.566 374.104 164.751 351.574 158.21 340.673C151.669 329.771 146.344 325.214 142.584 313.6C139.149 302.991 139.132 285.256 139.132 285.256" stroke="#915203" stroke-width="0.726776"/>
<path d="M171.837 295.43C171.837 295.43 183.538 300.589 191.278 299.791C201.11 298.777 213.263 287.254 213.263 287.254" stroke="#915203" stroke-width="0.726776"/>
<path d="M262.683 267.812C262.683 267.812 253.596 273.207 249.783 278.532C244.988 285.23 243.605 298.7 243.605 298.7" stroke="#915203" stroke-width="0.726776"/>
<path d="M243.061 306.695C243.061 306.695 240.069 329.52 241.062 344.124C241.798 354.948 245.423 371.56 245.423 371.56L250.874 392.455" stroke="#915203" stroke-width="0.726776"/>
<path d="M168.748 274.899C166.436 269.916 167.295 260.908 167.295 260.908L173.654 259.455L208.176 254.367H225.8C219.201 263.733 215.443 271.446 209.084 277.624C202.725 283.802 197.12 288.015 188.371 287.435C179.297 286.834 172.575 283.148 168.748 274.899Z" fill="#AE564A"/>
<path d="M166.36 270.538C164.049 265.555 165.296 260.182 165.296 260.182L168.93 259.637L173.291 258.91L207.994 254.186L226.527 253.277C219.928 262.644 215.08 267.813 208.721 273.99C202.362 280.168 194.732 283.655 185.983 283.075C176.91 282.474 170.188 278.787 166.36 270.538Z" fill="#F5AD85"/>
<path d="M182.56 392.999L170.202 392.656C170.202 392.656 170.378 377.705 167.659 367.562C166.387 362.817 163.843 353.753 163.843 353.753C163.843 353.753 160.123 343.352 156.575 337.037L167.113 352.118C167.113 352.118 172.943 362.557 176.019 369.742C179.732 378.415 182.56 392.999 182.56 392.999Z" fill="#E29013"/>
<path d="M127.506 393H112.607C112.607 393 110.902 374.302 110.972 362.293C111.06 347.203 111.57 338.658 114.061 323.774C116.072 311.757 120.238 294.34 120.238 294.34C120.238 294.34 119.057 308.668 118.421 318.505C117.351 335.078 116.843 344.601 119.33 361.022C121.26 373.766 127.506 393 127.506 393Z" fill="#E38F15"/>
<path d="M239.907 393.181H250.627L245.903 375.012C245.903 375.012 244.716 369.975 243.424 363.928C242.407 359.166 241.289 353.846 240.88 349.393C239.406 333.346 242.334 308.33 242.334 308.33L238.453 329.225C238.453 329.225 234.934 351.576 235.728 365.927C236.323 376.678 239.907 393.181 239.907 393.181Z" fill="#E29013"/>
</g>
<defs>
<clipPath id="clip0_178_4120">
<rect width="399" height="389.915" fill="white" transform="translate(0.5)"/>
</clipPath>
</defs>
</svg>
