<svg width="451" height="451" viewBox="0 0 451 451" fill="none" xmlns="http://www.w3.org/2000/svg">
<path d="M450.4 33.6992V416.499C450.4 434.999 435.4 449.999 416.9 449.999H34C15.5 450.099 0.5 434.999 0.5 416.499V33.6992C0.5 15.1992 15.5 0.199219 34 0.199219H416.8C423.4 0.199219 429.5 2.09922 434.7 5.39922C435.1 5.69922 435.5 5.89922 435.9 6.19922C444.7 12.2992 450.4 22.2992 450.4 33.6992Z" fill="#FFEEDC"/>
<path opacity="0.64" d="M133.8 0.199219C130.5 0.999219 127.1 1.99922 123.9 2.99922C116.5 5.39922 109.2 8.29922 102.8 12.4992C99.6 14.5992 96.7 17.0992 94 19.7992C91.3 22.5992 89 25.6992 86.9 28.8992C82.7 35.4992 79.1 42.4992 75.2 49.4992C71.3 56.3992 67 63.0992 62.4 69.5992C57.8 76.0992 52.8 82.2992 47.6 88.2992L39.7 97.1992C37 100.099 34.3 102.999 31.6 105.899C21.8 115.999 11.4 125.599 0.5 134.499V129.899C10.2 121.299 19.7 112.399 29 103.399C40.3 92.3992 51.9 81.5992 61.2 68.7992C65.9 62.4992 70 55.7992 73.8 48.7992C77.6 41.8992 80.8 34.5992 84.8 27.6992C88.8 20.7992 94.1 14.2992 100.8 9.69922C104.1 7.29922 107.7 5.39922 111.3 3.59922C114 2.39922 116.8 1.19922 119.6 0.199219H133.8V0.199219Z" fill="#F9E0CA"/>
<path opacity="0.64" d="M220.9 0.199609C214.5 4.09961 208.2 7.99961 201.9 11.9996C188.7 20.1996 175.6 28.5996 162.8 37.3996C150 46.1996 137.7 55.6996 125.1 64.8996C112.6 74.1996 100.2 83.5996 88 93.1996C75.8 102.9 63.9 112.9 51.8 122.7C34.9 136.2 17.9 149.3 0.5 162V158.7C16.6 145.4 33 132.5 49.6 119.9C62.1 110.6 74.7 101.5 87.2 92.0996C99.6 82.5996 111.7 72.8996 123.8 62.9996C135.9 53.1996 147.8 43.0996 160.6 33.9996C173.3 24.8996 186.3 16.1996 199.6 7.99961C204 5.29961 208.4 2.69961 212.8 0.0996094H220.9V0.199609Z" fill="#F9E0CA"/>
<path opacity="0.64" d="M264.4 0.199219C259 4.09922 253.6 8.29922 248.4 12.4992C242 17.6992 235.7 23.0992 229.9 28.7992L227.7 30.8992L225.7 33.0992C225.1 33.7992 224.3 34.5992 223.8 35.3992L222.1 37.7992C219.9 41.0992 218.5 44.5992 217 48.5992C216.3 50.5992 215.4 52.4992 214.5 54.4992C213.5 56.3992 212.5 58.3992 211.3 60.0992C209 63.6992 206.4 67.0992 203.7 70.2992C200.9 73.3992 198.2 76.6992 195.2 79.5992L190.8 84.0992L186.3 88.3992C174.2 99.8992 161.4 110.499 148.2 120.699L138.3 128.299C134.9 130.699 131.6 133.199 128.3 135.699C121.7 140.799 114.8 145.399 108.1 150.299C104.7 152.799 101.3 154.999 97.9 157.399C94.5 159.799 91.1 162.199 87.6 164.499L77.2 171.399C73.7 173.699 70.2 175.899 66.7 178.099C52.5 186.799 37.9 194.799 22.9 202.099C15.5 205.699 8 209.099 0.5 212.399V209.899C22.3 198.999 43.7 187.299 64.8 175.099C79.2 166.999 93.5 158.399 107.2 149.199C114 144.399 120.8 139.699 127.3 134.599C130.6 132.099 133.9 129.599 137.1 126.999L146.6 118.999C159.2 108.199 171.5 97.0992 183.4 85.5992L187.8 81.2992L192 76.7992C194.9 73.8992 197.5 70.6992 200.2 67.5992C205.3 61.1992 209.9 54.6992 212.6 46.9992C214.1 43.1992 215.8 38.9992 218.3 35.3992L220.2 32.7992C220.9 31.8992 221.6 31.1992 222.3 30.3992C223 29.5992 223.7 28.7992 224.5 27.9992L226.8 25.8992C233 20.1992 239.5 14.9992 246.1 9.89922C250.6 6.59922 255.1 3.29922 259.7 0.299219H264.4V0.199219Z" fill="#F9E0CA"/>
<path opacity="0.64" d="M332.8 0.199219C312.3 19.1992 291.6 37.8992 270.9 56.5992C255.9 70.0992 240.7 83.4992 225.9 97.0992C218.5 103.899 211.4 110.999 204.2 118.099C197 125.199 189.3 131.999 181.2 137.999C164.8 150.099 147.1 159.899 129.4 169.599C125 172.099 120.5 174.399 116.1 176.799C111.6 179.199 107.3 181.699 102.9 184.199C100.7 185.499 98.5 186.699 96.4 187.999L90 191.999L83.6 195.999L77.4 200.299C49.1 219.899 23 242.699 0.5 268.799V266.099C8.9 255.399 18.2 245.299 27.9 235.699C42.5 221.599 58.3 208.599 75.2 197.499L81.6 193.399L88.2 189.599L94.8 185.799C97 184.599 99.3 183.399 101.5 182.299C110.5 177.499 119.6 173.299 128.5 168.499C146.3 159.099 163.8 148.799 179.5 136.299C195.3 123.899 208.1 108.199 223 94.2992C237.7 80.3992 252.6 66.7992 267.7 53.2992C287.9 35.3992 308.3 17.6992 328.8 0.299219H332.8V0.199219Z" fill="#F9E0CA"/>
<path opacity="0.64" d="M368.3 0.199219C343.8 20.7992 319.6 41.6992 295.9 63.0992C287 71.1992 278.3 79.3992 269.6 87.6992C260.9 95.9992 252.4 104.499 244.3 113.299C236.2 122.099 228.3 131.099 221.5 140.899C220.6 142.099 219.9 143.399 219.1 144.599C218.3 145.899 217.5 147.099 216.8 148.399L214.7 152.299L212.6 156.299C211.2 158.999 209.9 161.699 208.2 164.299C206.6 166.899 205.1 169.499 203.2 171.899L200.5 175.599C199.6 176.799 198.5 177.899 197.5 179.099C196.5 180.199 195.5 181.399 194.4 182.499L191 185.599C190.4 186.099 189.9 186.599 189.3 187.099L187.5 188.499L183.9 191.299C181.3 192.899 178.9 194.699 176.2 196.099C171 199.199 165.6 201.799 160.2 204.499C154.8 207.199 149.5 209.999 144.2 212.799C122.9 223.999 103.6 238.399 84.6 253.199C75 260.399 65.4 267.699 55.7 274.799L26.7 296.199L0.5 315.299V312.299C8.6 305.999 16.6 299.799 24.8 293.599L53.6 271.799C63.2 264.499 73 257.499 82.6 250.299C92.3 243.299 102.1 236.199 112.3 229.699C114.8 228.099 117.4 226.399 119.9 224.899L127.7 220.299C130.3 218.699 132.9 217.299 135.6 215.799C138.2 214.299 140.9 212.899 143.5 211.499C154.2 205.899 165.1 200.799 175.4 194.699C185.9 188.899 194.6 180.399 201.2 170.499C203 168.099 204.3 165.399 205.8 162.899C207.3 160.399 208.5 157.599 209.8 154.899L211.7 150.899L213.8 146.799C214.5 145.399 215.3 144.099 216.1 142.799C216.9 141.499 217.6 140.099 218.5 138.899C225.2 128.699 233 119.399 241.1 110.499C257.3 92.5992 274.8 75.8992 292.7 59.7992C310.6 43.5992 329.1 28.0992 347.8 12.9992C353.1 8.69922 358.5 4.39922 363.9 0.199219H368.3V0.199219Z" fill="#F9E0CA"/>
<path opacity="0.64" d="M403.099 0.2C399.799 3.2 396.599 6.2 393.399 9.3C384.499 17.9 376.299 27.2 368.499 36.7C360.699 46.3 353.599 56.5 345.499 66.1C343.499 68.5 341.099 70.9 338.799 72.9C336.499 75 334.299 77 332.099 79.2C327.699 83.5 323.499 88 319.299 92.5C302.399 110.6 286.799 129.8 270.799 148.8C254.799 167.8 238.399 186.6 220.099 203.5C210.999 212 201.399 220 191.399 227.3C181.299 234.6 170.499 241 158.999 245.9C153.199 248.3 147.299 250.4 141.199 251.7L132.199 254C129.299 255 126.299 255.8 123.499 257C111.999 261.4 101.199 267.4 90.6992 273.9C80.1992 280.4 70.1992 287.6 60.2992 295C50.3992 302.4 40.7992 310.3 31.4992 318.4C20.9992 327.4 10.6992 336.7 0.699219 346.3V343.3C9.99922 333.9 19.4992 324.7 29.3992 315.9C47.9992 299.4 67.4992 283.7 88.9992 270.9C99.6992 264.5 110.999 258.9 122.799 254.7C125.699 253.6 128.799 252.8 131.799 251.9C134.799 251.2 137.999 250.5 140.899 249.9C146.899 248.7 152.799 246.6 158.499 244.4L162.799 242.6C164.199 242 165.599 241.3 166.999 240.6C169.799 239.3 172.499 237.7 175.199 236.2C180.499 233 185.699 229.7 190.599 225.9C200.599 218.6 209.799 210.2 218.599 201.6C236.199 184.2 252.099 165.1 267.799 146L291.399 117.2C299.299 107.6 307.699 98.4 316.199 89.3C320.399 84.7 324.799 80.2 329.199 75.9C331.399 73.7 333.799 71.6 336.099 69.5C338.499 67.5 340.599 65.5 342.599 63.2C350.699 54 358.099 44 366.099 34.4C374.199 24.9 382.899 15.9 392.099 7.5C394.899 4.9 397.799 2.4 400.799 0H403.099V0.2Z" fill="#F9E0CA"/>
<path opacity="0.64" d="M435.9 6.19961L343.5 106.7L316.8 135.9C307.9 145.6 299 155.3 290.2 165.1C272.5 184.6 255 204.3 237.7 224.1L224.9 239.1C220.6 244.1 216.5 249.3 212.4 254.4C204 264.6 196.5 275.3 188.5 285.9L182.1 293.5L175.4 300.8L168.4 307.8L161.1 314.5C151.2 323.3 140.6 331.3 129.7 338.7C118.7 346 107.3 352.9 95.6 359C83.9 365.1 72 370.8 59.8 376.1C40.4 384.2 20.6 391.5 0.5 397.4V396C7.7 393.5 14.9 390.9 22 388.1C34.3 383.4 46.4 378.3 58.4 372.9C70.4 367.5 82.2 361.8 93.7 355.5C105.2 349.2 116.7 342.8 127.6 335.6C138.6 328.5 149.3 320.9 159.4 312.5L166.8 306.1L174 299.4C176.3 297.1 178.5 294.6 180.8 292.3L187.2 284.8C191.2 279.6 195.2 274.4 199.1 269.1L205 261.2C206.9 258.5 209 256 211.1 253.4L223.3 237.8L235.8 222.4C252.5 202 269.6 181.9 287.1 162.2C304.5 142.4 322.2 122.8 340.2 103.5C349.2 93.8996 358.1 84.1996 367.2 74.5996L394.6 45.9996C407.9 32.2996 421.2 18.5996 434.7 5.09961C435.1 5.69961 435.5 5.89961 435.9 6.19961Z" fill="#F9E0CA"/>
<path opacity="0.64" d="M450.4 58V60L356 155.8C319.2 193.5 281.8 230.7 246.8 270C242.5 274.9 238.2 280 234.1 285.1C233.1 286.4 232.1 287.7 231.1 289C230.1 290.3 229.1 291.6 228.2 293C226.4 295.7 224.6 298.5 222.7 301.2C218.7 306.5 214.2 311.4 209.5 316.1L202.5 323.1L195.3 329.9C175.8 347.7 155.5 364.6 134.8 380.9C103.7 405.1 71.4 427.9 38.9 450H35L37.2 448.4L69.1 425.2C79.8 417.4 90.4 409.6 100.9 401.8C111.4 393.9 122.1 386.2 132.6 378.2C143.1 370.3 153.6 362.4 164 354.2C169.2 350.1 174.3 346 179.4 341.8C184.5 337.6 189.4 333.3 194.3 328.9C204.1 320.1 213.6 310.9 221.5 300.5C223.4 297.8 225.1 295.1 226.9 292.3C227.8 290.9 228.7 289.5 229.7 288.2C230.7 286.9 231.6 285.5 232.6 284.2C236.6 278.9 240.7 273.7 244.9 268.7C253.3 258.5 262 248.6 270.8 238.8C279.6 229 288.6 219.3 297.7 209.7C315.8 190.5 334.1 171.5 352.7 152.9C371.2 134.2 390.1 115.7 409 97.4C422.7 84 436.5 70.9 450.4 58Z" fill="#F9E0CA"/>
<path opacity="0.64" d="M450.401 82.0996V84.2996C422.801 111.3 395.901 139 370.301 167.8C362.701 176.5 355.201 185.3 348.001 194.3C340.801 203.3 333.901 212.5 327.601 222.1C326.001 224.5 324.601 227 323.001 229.4C321.501 231.9 320.201 234.4 318.801 236.9C317.601 239.5 316.201 242 315.101 244.6L313.501 248.5L311.901 252.6C307.801 263.5 302.401 274 295.701 283.6C295.301 284.2 294.901 284.8 294.501 285.3C293.201 287.1 291.701 288.8 290.401 290.6C288.601 292.9 286.501 295 284.601 297.2C280.401 301.3 276.101 305.3 271.401 308.7C262.001 315.7 251.301 320.6 241.201 326C240.101 326.6 239.001 327.2 237.901 327.9C236.501 328.8 235.201 329.6 234.001 330.6C233.301 331.1 232.501 331.7 231.801 332.3C230.301 333.5 228.901 334.8 227.401 336.1C225.301 338 223.201 340 221.201 341.9L221.101 342C220.401 342.7 219.601 343.4 218.901 344.1C217.601 345.4 216.201 346.7 214.901 348C206.701 356.2 198.701 364.5 190.601 372.8C176.501 387.3 162.501 401.8 148.401 416.3C141.901 423 135.401 429.6 128.901 436.3L128.801 436.4C124.401 440.9 120.001 445.4 115.601 449.9H112.801C119.201 442.8 125.601 435.8 132.101 428.8L132.201 428.7C134.801 425.9 137.301 423.1 139.901 420.4L150.901 408.7L163.801 395.1C167.801 390.9 171.901 386.7 175.901 382.6L188.201 370.3C196.401 362.2 204.801 354.1 213.301 346.2C214.701 344.9 216.201 343.5 217.601 342.2C218.301 341.6 219.001 341 219.701 340.3C219.701 340.3 219.801 340.2 219.901 340.2C222.001 338.3 224.101 336.4 226.301 334.6C227.601 333.4 229.001 332.2 230.501 331.1C232.901 329.2 235.401 327.4 238.001 325.9C238.901 325.4 239.701 324.9 240.601 324.5C245.701 321.8 251.001 319.4 256.101 316.6C261.101 313.8 266.101 310.8 270.601 307.3C273.401 305.2 276.101 303 278.601 300.6C280.401 298.9 282.201 297.1 283.801 295.2C287.501 291.1 290.801 286.7 293.801 282.2C294.201 281.6 294.501 281 294.901 280.4C296.101 278.6 297.201 276.8 298.201 274.9C299.501 272.4 300.901 269.8 302.201 267.3L305.701 259.4C306.901 256.8 307.801 254 308.801 251.4L311.901 243.2C312.901 240.4 314.301 237.8 315.501 235.1C318.201 229.9 321.101 224.8 324.201 219.9C336.801 200.2 351.501 182.1 367.001 164.8C382.401 147.4 398.701 130.8 415.301 114.7C426.701 103.6 438.401 92.6996 450.401 82.0996Z" fill="#F9E0CA"/>
<path opacity="0.64" d="M450.4 132.1V136.9C450.3 137 450.2 137.1 450 137.2C449.5 137.6 449.1 138.1 448.6 138.6C441.3 146.8 434.4 155.7 427.4 164.4C422 171.2 416.7 178.1 411.2 184.9C410.6 185.6 410 186.4 409.4 187.1C408.8 187.8 408.3 188.6 407.7 189.3C407.3 189.8 407 190.3 406.6 190.7L402.2 196.1L400 198.9L385.5 216.9C371.4 234.3 357 251.5 341.8 268.1C334.3 276.4 326.5 284.5 318.4 292.3C314.4 296.2 310 299.9 305.7 303.4C301.5 307 297.4 310.9 293.4 314.7C289.4 318.6 285.4 322.5 281.4 326.5C277.5 330.5 273.6 334.6 269.8 338.6C262.1 346.7 254.5 354.9 246.9 363.2L224 387.8C216.4 396 208.7 404.2 201.2 412.5C193.7 420.8 186 429 178.6 437.3L167.5 450C167.5 450 167.5 450 167.4 450.1H165.6C165.9 449.8 166.1 449.4 166.4 449.1C169.9 444.7 173.4 440.3 177 436.1C184.2 427.5 191.5 418.9 198.9 410.6C206.3 402.2 213.8 393.9 221.4 385.6C228.9 377.3 236.7 369.2 244.4 361.1C260 345 276.1 329.4 292.4 314C296.5 310.1 300.7 306.5 304.9 302.7C309.2 299 313.4 295.5 317.4 291.5C325.4 283.7 332.8 275.2 340.1 266.8C354.6 249.7 368.5 232.2 382.4 214.6C387.3 208.5 392.1 202.3 396.9 196.1C397.6 195.2 398.4 194.2 399.1 193.3C400.7 191.2 402.3 189.2 403.9 187.1C404.2 186.7 404.5 186.4 404.8 186C405.4 185.3 405.9 184.6 406.5 183.9C412.3 176.5 418.1 169.2 423.9 161.9L434.5 148.8C438.1 144.5 441.6 140.1 445.6 136C446.1 135.5 446.6 135 447.2 134.4C447.8 133.9 448.1 133.5 449.3 132.9C449.4 132.9 449.5 132.8 449.5 132.8C449.7 132.7 449.7 132.7 449.7 132.7H449.8C449.8 132.7 449.9 132.7 449.9 132.6L450.4 132.1Z" fill="#F9E0CA"/>
<path opacity="0.64" d="M450.4 211.1V217.6C439.4 228.4 428.2 238.8 417.2 249.4C402.8 263.2 388.7 277.2 374.6 291.4C371.1 294.9 367.6 298.6 364.1 302.1C360.6 305.7 357.2 309.3 353.8 312.9C347 320.2 340.2 327.5 333.6 335C320.4 350 307.7 365.3 294.9 380.7C275.4 403.9 255.8 426.9 236.4 450H233.5C240.1 441.3 246.9 432.8 253.6 424.3C266.1 408.7 278.9 393.3 292.1 378.4C305.3 363.4 319 348.9 332.5 334.1L372.8 289.8C386.3 275.1 400 260.5 414.3 246.6C426.3 234.7 438.4 223 450.4 211.1Z" fill="#F9E0CA"/>
<path opacity="0.64" d="M450.399 255.5V264.2C449.499 266.4 448.699 268.7 447.999 270.9C445.999 277.7 443.399 284.4 440.499 291C434.599 304.1 426.199 316 416.799 326.6C407.499 337.4 396.999 347 386.299 356.2C375.599 365.5 364.499 374.2 354.299 383.9C344.099 393.6 334.499 404 325.099 414.4C315.599 424.8 306.099 435.2 296.799 445.8C295.599 447.2 294.299 448.5 293.099 449.9H289.199C290.899 447.8 292.599 445.7 294.299 443.6C303.299 432.7 312.599 422 322.499 411.9C342.399 391.8 364.199 373.6 384.699 354.3C394.799 344.5 404.699 334.5 413.699 323.8C418.199 318.5 422.399 312.9 426.199 307C428.099 304.1 429.899 301.1 431.599 298.1C433.199 295 434.899 292 436.299 288.8C439.299 282.5 441.699 276 443.999 269.4C445.799 264.8 447.899 260 450.399 255.5Z" fill="#F9E0CA"/>
<path opacity="0.64" d="M450.4 332.199V338.499C446.5 342.099 442.6 345.499 438.5 348.799C435 351.599 431.5 354.199 428.2 356.999C426.5 358.299 424.8 359.699 423.3 361.199L418.5 365.599C412.4 371.799 406.4 378.299 401.4 385.599C396.3 392.699 391.9 400.399 387.5 407.899L369.1 438.599L362.2 450.099H361.1C362.9 445.599 365 441.099 367.1 436.599C368.4 433.999 369.7 431.399 371.1 428.799C373.2 424.899 375.3 420.999 377.5 417.199C379.7 413.399 382 409.599 384.5 405.999C387 402.399 389.6 398.799 392.3 395.199L396.3 389.999C397.6 388.199 399 386.499 400.3 384.799L404.3 379.499C405.7 377.799 407.1 376.099 408.4 374.299C411 370.799 414 367.399 416.8 363.999L421.3 359.099C422.1 358.299 422.8 357.399 423.6 356.699L426.1 354.499C427.7 352.999 429.4 351.399 431.1 349.999L436.1 345.799C440.8 341.399 445.6 336.899 450.4 332.199Z" fill="#F9E0CA"/>
<path opacity="0.64" d="M450.4 375.5V382.1C448.6 384 446.9 385.8 445.1 387.6C442.4 390.2 439.6 392.8 436.9 395.3C434.2 397.8 431.4 400.2 428.7 402.8C423.3 407.9 418.2 413.3 413.4 419.1C411.1 422 408.8 425 406.7 428C404.5 431 402.4 434 400.2 437.1C396.9 441.4 393.7 445.8 390.4 450.1H386C389.6 444.9 393.4 439.8 397.4 434.9C402.2 429.2 407.5 423.8 412.4 418.2C417.4 412.7 422.1 406.9 427 401.2C431.8 395.5 437.1 390.1 442.2 384.8C444.9 381.7 447.7 378.7 450.4 375.5Z" fill="#F9E0CA"/>
<g opacity="0.64">
<path d="M144.1 270.301C135.8 275.001 128 280.501 120.2 285.901C112.4 291.401 104.5 296.701 96.6004 301.801C92.6004 304.401 88.6004 306.901 84.7004 309.701C80.8004 312.401 77.0004 315.201 73.5004 318.501C71.8004 320.101 70.1004 321.801 68.8004 323.701C68.2004 324.601 67.6004 325.701 67.3004 326.701C67.0004 327.701 67.2004 328.701 68.0004 329.301C69.6004 330.501 72.1004 330.601 74.3004 330.601C76.6004 330.601 78.9004 330.201 81.1004 329.701C90.1004 327.301 98.2004 322.401 106 317.201C113.7 311.801 120.9 305.701 127.9 299.401C134.9 293.001 141.5 286.301 147.8 279.301C149.3 277.501 150.8 275.701 152.2 273.801C153.5 271.901 154.9 269.901 155.3 267.801C155.4 267.301 155.3 266.901 155.1 266.601C154.8 266.401 154.3 266.201 153.8 266.301C152.7 266.401 151.6 266.801 150.5 267.201C148.3 267.901 146.2 269.101 144.1 270.301ZM143.9 269.901C145.9 268.601 148 267.401 150.2 266.401C151.3 265.901 152.4 265.401 153.7 265.201C154.3 265.101 155.1 265.101 155.8 265.601C156.5 266.101 156.6 267.001 156.6 267.701C156.4 270.401 155.1 272.501 154 274.701C152.8 276.801 151.5 278.901 150.2 280.901C144.8 288.901 138.2 296.001 131.2 302.601C124.2 309.201 116.6 315.201 108.5 320.401C104.4 323.001 100.2 325.401 95.8004 327.401C91.4004 329.401 86.7004 331.001 81.9004 331.801C79.5004 332.201 77.0004 332.401 74.5004 332.301C73.3004 332.201 72.0004 332.101 70.8004 331.801C69.6004 331.501 68.3004 331.201 67.2004 330.201C66.1004 329.201 65.8004 327.501 66.2004 326.201C66.5004 324.901 67.2004 323.801 67.9004 322.801C69.3004 320.801 71.0004 319.001 72.7004 317.301C79.6004 310.501 87.0004 304.501 94.7004 298.701C102.4 293.001 110.5 288.001 119 283.401C127.2 279.001 135.7 274.701 143.9 269.901Z" fill="#F9E0CA"/>
</g>
<g opacity="0.64">
<path d="M181.6 52.4999C173.3 57.1999 165.5 62.6999 157.7 68.0999C149.9 73.5999 142 78.8999 134.1 83.9999C130.1 86.5999 126.1 89.0999 122.2 91.8999C118.3 94.5999 114.5 97.3999 111 100.7C109.3 102.3 107.6 104 106.4 105.9C105.8 106.8 105.2 107.9 104.9 108.9C104.6 109.9 104.8 110.9 105.6 111.5C107.2 112.7 109.7 112.8 111.9 112.8C114.2 112.8 116.5 112.4 118.7 111.9C127.7 109.5 135.8 104.6 143.6 99.3999C151.3 93.9999 158.5 87.8999 165.5 81.5999C172.5 75.1999 179.1 68.4999 185.4 61.4999C186.9 59.6999 188.4 57.8999 189.8 55.9999C191.1 54.0999 192.5 52.0999 192.9 49.9999C193 49.4999 192.9 49.0999 192.7 48.7999C192.4 48.5999 191.9 48.3999 191.4 48.4999C190.3 48.5999 189.2 48.9999 188.1 49.3999C185.7 50.0999 183.7 51.2999 181.6 52.4999ZM181.4 52.0999C183.4 50.7999 185.5 49.5999 187.7 48.5999C188.8 48.0999 189.9 47.5999 191.2 47.3999C191.8 47.2999 192.6 47.2999 193.3 47.7999C194 48.2999 194.1 49.1999 194.1 49.8999C193.9 52.5999 192.6 54.6999 191.5 56.8999C190.3 58.9999 189 61.0999 187.7 63.0999C182.3 71.0999 175.7 78.1999 168.7 84.7999C161.7 91.3999 154.1 97.3999 146 102.6C141.9 105.2 137.7 107.6 133.3 109.6C128.9 111.6 124.2 113.2 119.4 114C117 114.4 114.5 114.6 112 114.5C110.8 114.4 109.5 114.3 108.3 114C107.1 113.7 105.8 113.4 104.7 112.4C103.6 111.4 103.3 109.7 103.7 108.4C104 107.1 104.7 106 105.4 105C106.8 103 108.5 101.2 110.2 99.4999C117.1 92.6999 124.5 86.6999 132.2 80.8999C139.9 75.1999 148 70.1999 156.5 65.5999C164.6 61.2999 173.2 56.8999 181.4 52.0999Z" fill="#F9E0CA"/>
</g>
<g opacity="0.64">
<path d="M286.201 244.6C282.001 250 278.301 255.8 274.601 261.5C271.001 267.3 267.201 272.9 263.301 278.6C261.401 281.4 259.501 284.2 257.601 287.1C255.801 290 254.101 292.9 252.701 296C252.101 297.6 251.401 299.1 251.101 300.8C250.801 302.4 250.801 304.3 252.001 304.9C253.301 305.5 255.001 305 256.501 304.5C258.001 303.9 259.501 303.1 260.801 302.2C266.101 298.2 270.101 292.7 273.701 287C277.301 281.3 280.301 275.2 283.101 269.1C285.901 262.9 288.401 256.6 290.601 250.3C291.101 248.7 291.601 247.1 292.001 245.4C292.301 243.8 292.701 242.1 292.501 240.5C292.401 239.7 292.001 239.2 291.301 239.5C290.601 239.8 289.901 240.3 289.301 240.9C288.301 241.9 287.301 243.3 286.201 244.6ZM286.001 244.4C287.001 243 288.001 241.6 289.201 240.4C289.801 239.8 290.401 239.2 291.301 238.8C291.701 238.6 292.401 238.5 292.801 238.9C293.301 239.3 293.401 239.8 293.601 240.2C294.001 242 293.801 243.8 293.701 245.5C293.501 247.2 293.201 248.9 292.901 250.6C291.601 257.4 289.201 263.9 286.501 270.3C283.701 276.6 280.401 282.7 276.501 288.5C272.601 294.2 268.101 299.8 262.101 303.5C260.601 304.4 259.001 305.2 257.301 305.7C256.401 305.9 255.601 306.1 254.701 306.2C253.801 306.3 252.801 306.3 251.901 305.8C250.901 305.3 250.401 304.2 250.301 303.3C250.201 302.4 250.301 301.5 250.501 300.6C250.901 298.9 251.401 297.2 252.101 295.6C254.701 289.2 257.901 283.1 261.401 277.2C264.901 271.3 268.901 265.7 273.201 260.4C277.401 255 281.901 249.9 286.001 244.4Z" fill="#F9E0CA"/>
</g>
<g opacity="0.64">
<path d="M157.401 75.6C154.101 77.5 151.001 79.6 147.901 81.8C144.801 84 141.701 86.1 138.501 88.1C135.401 90.2 132.101 92.1 129.401 94.7C128.701 95.3 128.001 96 127.501 96.8C127.001 97.5 126.601 98.5 127.201 99C127.801 99.5 128.801 99.5 129.701 99.5C130.601 99.5 131.501 99.4 132.401 99.1C136.001 98.2 139.201 96.2 142.301 94.1C145.401 92 148.201 89.6 151.001 87C153.801 84.5 156.401 81.8 158.901 79C160.101 77.6 161.401 76.1 161.901 74.4C162.001 74 161.701 73.8 161.301 73.8C160.901 73.8 160.401 74 160.001 74.1C159.001 74.6 158.201 75.1 157.401 75.6ZM157.301 75.4C158.101 74.9 158.901 74.4 159.801 74C160.201 73.8 160.701 73.6 161.201 73.5C161.401 73.5 161.701 73.5 162.001 73.7C162.301 73.9 162.301 74.3 162.301 74.5C162.201 75.6 161.701 76.4 161.301 77.3C160.801 78.1 160.301 79 159.801 79.8C157.601 83 155.001 85.8 152.301 88.4C149.501 91 146.501 93.4 143.301 95.5C140.101 97.6 136.601 99.4 132.701 100C131.701 100.2 130.801 100.2 129.801 100.2C128.801 100.1 127.801 100.1 126.901 99.4C126.401 99 126.301 98.3 126.501 97.8C126.601 97.3 126.901 96.9 127.201 96.5C127.801 95.7 128.401 95 129.101 94.3C131.801 91.7 134.801 89.2 137.801 87C143.801 82.3 150.801 79.2 157.301 75.4Z" fill="#F9E0CA"/>
</g>
<path opacity="0.5" d="M83.5988 85.1992C71.7988 85.1992 62.6988 95.4992 63.9988 107.199L73.4988 191.599C74.5988 201.599 83.0988 209.099 93.0988 209.099H98.8988V219.799H95.0988C84.1988 219.799 75.3988 228.599 75.3988 239.499V385.799C75.3988 396.699 83.2988 395.799 94.1988 395.799L331.199 405.499C342.099 405.499 350.899 396.699 350.899 385.799L341.899 232.499C341.899 221.599 342.099 219.799 331.199 219.799H328.499L317.699 212.499L83.5988 85.1992Z" fill="#E8D5C4"/>
<path d="M320.2 194.1H90.5996V214.4H320.2V194.1Z" fill="#9E909E"/>
<path d="M322.8 395.9H86.7996C75.8996 395.9 67.0996 387.1 67.0996 376.2V229.8C67.0996 218.9 75.8996 210.1 86.7996 210.1H322.8C333.7 210.1 342.5 218.9 342.5 229.8V376.2C342.6 387.1 333.7 395.9 322.8 395.9Z" fill="#F1F7F0"/>
<path d="M325.399 199.4H84.6992C74.5992 199.4 66.1992 191.8 65.0992 181.9L55.5992 97.5C54.2992 85.8 63.4992 75.5 75.2992 75.5H336.999C348.999 75.5 358.199 86.1 356.599 97.9L344.999 182.3C343.599 192.1 335.199 199.4 325.399 199.4Z" fill="#9E909E"/>
<path d="M320.899 194.1H89.4987C79.7987 194.1 71.6987 187.2 70.5987 178.1L61.4987 100.9C60.1987 90.2004 68.9987 80.9004 80.3987 80.9004H332.099C343.599 80.9004 352.499 90.6004 350.899 101.4L339.699 178.5C338.499 187.4 330.399 194.1 320.899 194.1Z" fill="#F1F7F0"/>
<path d="M239.5 390.601H174.4C166.1 390.601 159.5 383.901 159.5 375.701V344.201C159.5 335.901 166.2 329.301 174.4 329.301H239.5C247.8 329.301 254.4 336.001 254.4 344.201V375.701C254.5 383.901 247.8 390.601 239.5 390.601Z" stroke="#9E909E" stroke-width="1.3121" stroke-miterlimit="10"/>
<path d="M323.999 232.5H89.9988C87.8988 232.5 86.2988 230.8 86.2988 228.8C86.2988 226.7 87.9988 225.1 89.9988 225.1H323.899C325.999 225.1 327.599 226.8 327.599 228.8C327.699 230.8 325.999 232.5 323.999 232.5Z" fill="#9E909E"/>
<path d="M323.999 248.701H89.9988C87.8988 248.701 86.2988 247.001 86.2988 245.001V239.501C86.2988 237.401 87.9988 235.801 89.9988 235.801H323.899C325.999 235.801 327.599 237.501 327.599 239.501V245.001C327.699 247.101 325.999 248.701 323.999 248.701Z" fill="#9E909E"/>
<path d="M323.999 265.4H89.9988C87.8988 265.4 86.2988 263.7 86.2988 261.7V256.2C86.2988 254.1 87.9988 252.5 89.9988 252.5H323.899C325.999 252.5 327.599 254.2 327.599 256.2V261.7C327.699 263.7 325.999 265.4 323.999 265.4Z" fill="#9E909E"/>
<path d="M323.999 282H89.9988C87.8988 282 86.2988 280.3 86.2988 278.3V272.8C86.2988 270.7 87.9988 269.1 89.9988 269.1H323.899C325.999 269.1 327.599 270.8 327.599 272.8V278.3C327.699 280.3 325.999 282 323.999 282Z" fill="#9E909E"/>
<path d="M323.999 298.599H89.9988C87.8988 298.599 86.2988 296.899 86.2988 294.899V289.399C86.2988 287.299 87.9988 285.699 89.9988 285.699H323.899C325.999 285.699 327.599 287.399 327.599 289.399V294.899C327.699 296.899 325.999 298.599 323.999 298.599Z" fill="#9E909E"/>
<path d="M89.9988 302.199H159.099C161.199 302.199 162.799 303.899 162.799 305.899V311.399C162.799 313.499 161.099 315.099 159.099 315.099H89.9988C87.8988 315.099 86.2988 313.399 86.2988 311.399V305.899C86.2988 303.899 87.9988 302.199 89.9988 302.199Z" fill="#9E909E"/>
<path d="M327.299 305.899V311.399C327.299 313.499 325.599 315.099 323.599 315.099H247.899C245.799 315.099 244.199 313.399 244.199 311.399V305.899C244.199 303.799 245.899 302.199 247.899 302.199H323.599C325.699 302.199 327.299 303.899 327.299 305.899Z" fill="#9E909E"/>
<path d="M237.7 305.899V311.399C237.7 313.499 236 315.099 234 315.099H172.8C170.7 315.099 169.1 313.399 169.1 311.399V305.899C169.1 303.799 170.8 302.199 172.8 302.199H234C236 302.199 237.7 303.899 237.7 305.899Z" fill="#9E909E"/>
<path d="M294.899 178.299H128.799L120.299 106.199H299.699L294.899 178.299Z" fill="white"/>
<path d="M271.2 120.6H135.6V121.4H271.2V120.6Z" fill="#9E909E"/>
<path d="M267.7 128.4H139.1V129.2H267.7V128.4Z" fill="#9E909E"/>
<path d="M264.2 137.1H142.6V137.9H264.2V137.1Z" fill="#9E909E"/>
<path d="M257.7 147.5H149V148.3H257.7V147.5Z" fill="#9E909E"/>
<path d="M112.999 223.199H110.699V300.799H112.999V223.199Z" fill="#F1F7F0"/>
<path d="M139.999 223.199H137.699V300.799H139.999V223.199Z" fill="#F1F7F0"/>
<path d="M166.999 223.199H164.699V300.799H166.999V223.199Z" fill="#F1F7F0"/>
<path d="M193.9 223.199H191.6V300.799H193.9V223.199Z" fill="#F1F7F0"/>
<path d="M220.9 223.199H218.6V300.799H220.9V223.199Z" fill="#F1F7F0"/>
<path d="M247.9 223.199H245.6V300.799H247.9V223.199Z" fill="#F1F7F0"/>
<path d="M274.8 223.199H272.5V300.799H274.8V223.199Z" fill="#F1F7F0"/>
<path d="M301.8 223.199H299.5V300.799H301.8V223.199Z" fill="#F1F7F0"/>
<path opacity="0.5" d="M197.699 319.399C197.699 319.299 197.699 319.299 197.699 319.399C197.699 319.299 197.699 319.299 197.699 319.399C197.899 319.299 197.699 319.299 197.699 319.399Z" fill="#E8D5C4"/>
<path opacity="0.5" d="M311.298 450.101H295.298L294.398 448.601L292.598 445.801L270.498 409.501L268.398 406.201L256.598 386.901C250.498 381.501 244.998 376.001 240.198 370.701C239.398 369.801 238.498 368.901 237.698 368.001C229.298 358.601 222.998 349.901 218.798 344.201C218.298 343.601 217.898 343.001 217.498 342.401C216.598 341.101 215.798 340.101 215.098 339.201C212.398 335.601 210.798 328.401 209.998 322.301C209.698 320.201 209.498 318.201 209.398 316.601C209.398 316.501 209.398 316.401 209.398 316.301C209.598 317.501 209.898 318.801 210.198 320.101C211.498 326.201 213.598 333.301 216.598 336.601C217.498 337.601 218.498 338.801 219.898 340.301C220.298 340.801 220.798 341.301 221.198 341.901C222.298 343.201 223.498 344.601 224.798 346.201C225.498 347.101 226.298 348.001 227.198 348.901C227.998 349.801 228.798 350.701 229.698 351.701C233.098 355.501 237.098 359.701 241.598 364.001C242.398 364.801 243.298 365.701 244.198 366.501C249.398 371.401 255.098 376.301 261.498 381.101L274.498 399.001L276.798 402.201L301.098 435.801L303.298 438.801L311.298 450.101Z" fill="#E8D5C4"/>
<path d="M380.899 450.1H311.299L303.199 438.9L300.999 435.9L276.699 402.2L274.399 399L261.399 381C255.099 376.2 249.299 371.3 244.099 366.4C243.199 365.6 242.299 364.8 241.499 363.9C236.999 359.6 232.999 355.4 229.599 351.6C228.699 350.7 227.899 349.7 227.099 348.8C226.299 347.9 225.499 347 224.699 346.1C223.399 344.6 222.199 343.1 221.099 341.8C220.599 341.2 220.199 340.7 219.799 340.2C218.499 338.7 217.399 337.4 216.499 336.4C213.499 333.1 211.399 325.9 210.099 319.9C209.799 318.7 209.599 317.5 209.399 316.4C209.399 316.3 209.399 316.2 209.399 316.1C209.299 315.5 209.199 315 209.099 314.5C208.599 311.6 208.399 309.6 208.399 309.6C208.199 308.2 208.699 307.5 209.799 307.5C210.899 307.4 212.399 308 214.199 309C214.599 309.2 214.999 309.5 215.399 309.8C219.399 312.6 223.899 317.6 225.599 323.2C226.599 326.7 228.499 329.5 230.399 331.1C230.799 331.5 231.299 331.8 231.699 332.1C234.799 333.9 237.699 332.9 237.799 327.6C237.799 327.1 237.799 326.5 237.799 325.8C237.699 324.5 237.499 323.1 237.099 321.4C234.799 311.4 232.099 299.5 229.699 290.5C229.499 289.8 229.299 289.1 229.199 288.4C227.799 283.2 226.499 279.2 225.599 277.6C223.199 273.3 221.999 250.4 229.199 263.1C232.299 268.6 234.999 273.3 237.299 277.6C237.699 278.3 237.999 278.9 238.299 279.6C240.799 284.7 242.499 289.3 243.299 294.2C244.699 303.8 248.899 300.6 248.899 300.6C254.999 285 247.199 278 242.399 274.7C241.899 274.4 241.399 274.1 240.999 273.8C240.899 273.7 240.699 273.6 240.599 273.5C236.499 270.8 233.499 267.9 239.199 266.5C240.999 266.1 243.399 266.3 245.899 267.1C246.699 267.3 247.499 267.6 248.299 267.9C253.699 270 259.099 273.8 260.899 277.6V277.7C261.199 278.5 261.499 279.5 261.799 280.6C262.999 285.6 263.899 293.5 264.799 298.6C264.999 299.5 265.099 300.3 265.299 300.9C265.799 303 266.299 304 266.899 303.1C267.599 302.2 268.199 300.3 268.599 297.9C268.799 296.6 268.999 295.1 269.199 293.4C269.699 288.1 269.699 281.7 268.799 277C268.499 275.6 268.099 273.9 267.399 272.1C267.099 271.1 266.699 270 266.199 268.9C262.999 260 259.299 251 270.499 263.1C270.499 263.1 270.499 263.2 270.599 263.2C271.099 263.8 271.599 264.4 272.099 264.9C275.599 269.1 277.699 273.5 278.899 277.6C279.399 279.2 279.699 280.8 279.899 282.4C281.199 291.8 278.599 299.3 278.299 300.3C277.999 301.4 280.899 302.5 283.499 294.9C284.499 291.9 285.499 287.6 286.199 281.4C288.599 259.5 291.199 266.1 291.199 266.1C293.799 270.4 294.699 275.2 294.599 280C294.599 281.6 294.499 283.2 294.299 284.8C292.999 296.1 288.099 307.5 289.299 315.6C289.299 315.8 289.299 315.9 289.399 316.1C289.499 316.7 289.599 317.4 289.599 318C290.799 331.1 287.299 351.5 291.199 359.4C291.899 360.7 294.899 364.3 299.599 369.2C300.299 369.9 300.999 370.7 301.799 371.5C309.499 379.5 320.399 390.5 331.999 402C332.599 402.7 333.299 403.3 333.999 404C345.299 415.1 356.999 426.6 366.799 436C367.499 436.7 368.099 437.3 368.799 437.9C373.499 442.9 377.599 446.8 380.899 450.1Z" fill="#FFBCBC"/>
<path d="M214.499 317.2C214.799 319.8 212.499 320.8 210.199 320C208.999 314.4 208.399 309.7 208.399 309.7C208.199 308.3 208.699 307.6 209.799 307.6C211.399 309.5 213.999 312.9 214.499 317.2Z" fill="#FCCACA"/>
<path opacity="0.5" d="M195.5 327.7C196.4 324.5 197.1 321.7 197.7 319.4C197.4 321.4 197.3 323.7 197.1 326.3C197 327 197 327.7 196.8 328.5C196.6 330 196.4 331.5 196 333.2C189.7 361.8 160.5 379.8 160.5 379.8C160.5 379.8 156.3 392.5 150.9 408.8C150.1 411.3 149.3 413.8 148.4 416.4C144.7 427.5 140.7 439.6 137.2 450H123C124.8 445.8 126.8 441.2 128.8 436.4C129.9 433.9 131 431.3 132.1 428.8C143 403.4 154.9 375.5 154.9 375.5C154.9 375.5 185.5 360 194.2 332C194.4 331.5 194.5 330.9 194.7 330.4C194.9 329.5 195.2 328.6 195.5 327.7Z" fill="#E8D5C4"/>
<path d="M197.9 318.201C197.8 318.601 197.7 318.901 197.6 319.301C197.1 321.701 196.3 324.501 195.4 327.701C195.1 328.601 194.9 329.501 194.6 330.501C194.5 330.901 194.3 331.401 194.2 331.901C185.5 359.901 154.9 375.401 154.9 375.401C154.9 375.401 143 403.401 132 428.901C130.9 431.501 129.8 434.101 128.7 436.501C126.6 441.301 124.7 445.901 122.9 450.001H67C73.7 439.701 81.9 427.101 90 414.301C91.8 411.501 93.5 408.701 95.3 405.901C111.2 380.401 125 356.301 124 351.601C123.6 349.701 123.2 346.701 122.8 343.101C122.7 341.801 122.5 340.501 122.4 339.101C121.6 330.801 120.9 320.501 120.3 312.001C120.2 310.101 120 308.201 119.9 306.501C119.5 300.801 119.2 296.701 118.9 295.801C118.5 294.401 118.6 291.001 119 286.801C119.1 285.701 119.2 284.601 119.3 283.401C119.8 279.301 120.5 274.801 121.2 271.101C122.9 262.501 125.3 261.801 125.3 261.801C129 263.201 130.7 269.301 130.5 277.301C130.5 277.801 130.5 278.301 130.5 278.801C130.4 281.301 130.1 283.901 129.6 286.601C128.8 291.401 128.9 295.101 129.3 298.101C129.6 300.101 130.1 301.801 130.6 303.201C131.2 304.901 131.8 306.201 132 307.101C132.7 310.001 133.4 303.501 133.4 303.501C133.3 302.501 133.2 301.601 133.1 300.701C132.8 298.601 132.6 296.801 132.5 295.101C131.7 286.401 132.5 282.401 136 275.201C136.2 274.801 136.4 274.501 136.6 274.101C136.9 273.601 137.1 273.001 137.4 272.501C143.3 261.301 149.6 258.601 149.6 258.601C151.3 260.401 151.6 263.201 151.4 266.001C151.4 266.301 151.4 266.501 151.3 266.801C150.9 270.501 149.7 273.801 149.7 273.801L155.2 268.001L156.3 266.801L156.5 266.601C170 255.401 164.4 266.901 161.2 277.201C158 287.501 162.2 304.301 162.2 304.301C162.2 304.301 166.1 251.801 172.5 252.101C178.9 252.401 176.1 272.701 177.7 295.301C177.7 295.401 177.7 295.601 177.7 295.701C177.8 296.501 177.8 297.301 177.8 298.001C178.7 319.401 172.7 337.101 185.7 319.801C191.2 312.401 195.1 308.401 197.1 308.201C199.2 307.901 199.5 311.201 197.9 318.201Z" fill="#FFBCBC"/>
<path d="M149.801 273.701C149.801 273.701 144.801 282.701 144.801 288.901C144.801 295.101 147.301 308.701 147.301 308.701C147.301 308.701 143.001 289.601 149.801 273.701Z" fill="#F38BA0"/>
<path d="M197.9 318.2C196.7 318.5 195 317.9 193.9 316.8C192.4 315.4 195.7 310.2 197.2 308.1C199.2 307.9 199.5 311.2 197.9 318.2Z" fill="#FCCACA"/>
<path opacity="0.5" d="M445.2 118.4C442.1 115.3 438.3 113.4 434.4 112.6C433.2 112.4 432 112.2 430.8 112.2C426.7 112.1 422.6 113.2 419 115.6C417.8 116.4 416.6 117.3 415.6 118.3L412 121.9C409.6 122.5 407.4 123.4 405.2 124.5C397.4 128.3 391.1 134.7 387.4 142.6C386.5 144.6 385.7 146.6 385.1 148.8L382.3 151.6C379.9 154 378.1 156.9 377.2 160C376.4 162.4 376.1 164.9 376.2 167.5C376.3 169.3 376.6 171.2 377.2 173C378.2 176 379.9 178.9 382.3 181.3L403 202L406.1 205.1L415.6 214.6C423.8 222.8 437.1 222.8 445.3 214.6L450.4 209.5V123.6L445.2 118.4Z" fill="#E8D5C4"/>
<path d="M450.399 134.699C450.499 134.799 450.499 134.899 450.499 135.099C450.499 134.899 450.399 134.799 450.399 134.699V196.999L441.499 205.899C433.299 214.099 419.999 214.099 411.799 205.899L402.299 196.399L399.199 193.299L378.499 172.599C376.099 170.199 374.399 167.299 373.399 164.299C372.799 162.499 372.499 160.699 372.399 158.799C372.099 153.099 374.199 147.299 378.499 142.999L381.299 140.199L385.499 135.999L404.099 117.399L408.299 113.199L411.899 109.599C416.099 105.399 421.599 103.299 427.099 103.499C428.299 103.499 429.499 103.599 430.699 103.899C434.699 104.699 438.499 106.599 441.499 109.699L450.399 118.599V134.699Z" fill="#FEF0FF"/>
<path d="M450.4 134.699C450.5 134.799 450.5 134.899 450.5 135.099C450.5 134.899 450.4 134.799 450.4 134.699V186.999C443.9 191.899 436.5 194.699 430.9 195.199C421.4 195.899 413.4 192.699 407.8 189.499C406.4 188.699 405.1 187.899 404 187.099C401.2 185.099 399.6 183.499 399.6 183.499L401.4 181.599L447.6 130.099L449.3 128.199C449.7 128.599 450 128.899 450.3 129.299V134.699H450.4Z" fill="#E3CDE4"/>
<path d="M438.2 120.599C436 120.199 433.8 119.999 431.6 119.999C409.6 119.999 391.7 137.899 391.7 159.899C391.7 166.299 393.2 172.399 395.9 177.799C387.8 171.299 382.6 161.299 382.6 149.999C382.6 130.299 398.6 114.299 418.3 114.299C425.6 114.399 432.5 116.699 438.2 120.599Z" fill="#E3CDE4"/>
<path d="M449.599 133.099C449.899 133.599 450.199 134.099 450.399 134.699V165.499C444.699 177.499 432.399 185.699 418.199 185.699C417.699 185.699 417.199 185.699 416.599 185.699C416.299 185.699 416.099 185.699 415.799 185.699C415.399 185.699 414.899 185.599 414.499 185.599C413.999 185.599 413.499 185.499 412.999 185.399C412.399 185.299 411.799 185.199 411.199 185.099C410.799 184.999 410.499 184.999 410.199 184.899C409.799 184.799 409.399 184.699 408.999 184.599C408.099 184.399 407.299 184.099 406.499 183.799C406.399 183.799 406.199 183.699 406.099 183.699C405.599 183.499 405.199 183.399 404.699 183.199C404.199 182.999 403.799 182.799 403.299 182.599C402.899 182.399 402.399 182.199 401.999 181.999C401.799 181.899 401.499 181.699 401.299 181.599C399.399 180.599 397.599 179.399 395.899 177.999C393.199 172.599 391.699 166.499 391.699 160.099C391.699 150.499 395.099 141.699 400.699 134.899C401.999 133.299 403.499 131.699 405.099 130.299C412.099 123.999 421.399 120.199 431.599 120.199C433.799 120.199 436.099 120.399 438.199 120.799C438.799 121.199 439.399 121.599 439.899 121.999C440.399 122.399 440.899 122.799 441.499 123.299C441.599 123.299 441.599 123.399 441.699 123.499C442.199 123.899 442.699 124.399 443.099 124.799C443.599 125.299 444.099 125.799 444.599 126.299C445.099 126.799 445.499 127.399 445.999 127.899C446.399 128.499 446.899 128.999 447.299 129.599C447.399 129.699 447.499 129.899 447.599 129.999C447.899 130.399 448.199 130.799 448.399 131.299C448.699 131.799 448.999 132.299 449.299 132.799C449.399 132.799 449.499 132.999 449.599 133.099Z" fill="#9E909E"/>
<path d="M422.5 112.098C421.1 111.998 419.7 111.898 418.2 111.898C414.8 111.898 411.4 112.398 408.2 113.198C395.2 116.698 384.9 126.998 381.3 140.098C380.4 143.298 380 146.698 380 150.098V150.498C380 152.498 380.2 154.398 380.5 156.298C382.4 167.998 389.6 177.798 399.5 183.398C401.2 184.398 403 185.198 404.8 185.898C406.3 186.498 407.8 186.898 409.4 187.298C412.2 187.998 415.1 188.298 418.1 188.298C431.6 188.298 443.5 181.298 450.3 170.698V165.498C444.6 177.498 432.3 185.698 418.1 185.698C417.6 185.698 417.1 185.698 416.5 185.698C416.2 185.698 416 185.698 415.7 185.698C415.3 185.698 414.8 185.598 414.4 185.598C413.9 185.598 413.4 185.498 412.9 185.398C412.3 185.298 411.7 185.198 411.1 185.098C410.7 184.998 410.4 184.998 410.1 184.898C409.7 184.798 409.3 184.698 408.9 184.598C408 184.398 407.2 184.098 406.4 183.798C406.3 183.798 406.1 183.698 406 183.698C405.5 183.598 405.1 183.398 404.6 183.198C404.1 182.998 403.7 182.798 403.2 182.598C402.7 182.398 402.3 182.198 401.9 181.998C401.6 181.898 401.4 181.798 401.2 181.598C398.1 179.998 395.3 177.898 392.9 175.398C392 174.498 391.1 173.498 390.3 172.498C389.5 171.498 388.7 170.398 388 169.298C387.6 168.698 387.3 168.198 387 167.598C386.7 166.998 386.4 166.398 386.1 165.898C385.8 165.298 385.5 164.698 385.3 164.098C385 163.498 384.8 162.898 384.6 162.298C384.3 161.598 384.1 160.898 383.9 160.198C383.7 159.698 383.6 159.098 383.5 158.598C383.3 157.798 383.2 156.998 383 156.198C382.9 155.798 382.9 155.498 382.9 155.098C382.8 154.798 382.8 154.398 382.8 154.098C382.7 153.498 382.7 152.998 382.7 152.398C382.7 151.698 382.6 150.998 382.6 150.298C382.6 149.498 382.6 148.698 382.7 147.898C383 143.698 384 139.798 385.5 136.098C389.1 127.798 395.7 121.098 404.1 117.498C407.6 115.998 411.4 114.998 415.5 114.698C416.4 114.598 417.4 114.598 418.3 114.598C418.9 114.598 419.4 114.598 420 114.598H420.2C420.3 114.598 420.4 114.598 420.5 114.598C421 114.598 421.5 114.698 421.9 114.698C422.5 114.698 423.1 114.798 423.7 114.898C424.7 114.998 425.7 115.198 426.6 115.498C426.9 115.598 427.2 115.698 427.5 115.698C427.9 115.798 428.4 115.898 428.8 116.098C429.4 116.298 429.9 116.498 430.5 116.698C431 116.898 431.6 117.098 432.1 117.298C433.6 117.898 435 118.598 436.3 119.398C436.6 119.498 436.8 119.698 437.1 119.898C438.1 120.498 439 121.098 439.9 121.798C440.4 122.198 440.9 122.598 441.5 123.098C441.6 123.098 441.6 123.198 441.7 123.298C442.2 123.698 442.7 124.198 443.1 124.598C443.6 125.098 444.1 125.598 444.6 126.098C445.1 126.598 445.6 127.198 446 127.698C446.4 128.298 446.9 128.798 447.3 129.398C447.4 129.498 447.5 129.698 447.6 129.798C447.9 130.198 448.2 130.598 448.4 131.098C448.7 131.598 449 132.098 449.3 132.598C449.4 132.698 449.5 132.898 449.5 132.998C449.8 133.498 450 133.998 450.3 134.498V129.298C450 128.798 449.6 128.298 449.3 127.798C443.2 119.298 433.5 113.298 422.5 112.098Z" fill="white"/>
<path d="M408.699 166.498C408.699 167.898 407.599 168.998 406.199 168.998C404.799 168.998 403.699 167.898 403.699 166.498C403.699 165.098 404.799 163.998 406.199 163.998C407.599 164.098 408.699 165.198 408.699 166.498Z" fill="#E3CDE4"/>
<path d="M401 166.498C401 167.298 400.3 167.998 399.5 167.998C398.7 167.998 398 167.298 398 166.498C398 165.698 398.7 164.998 399.5 164.998C400.3 165.098 401 165.698 401 166.498Z" fill="#E3CDE4"/>
<path d="M404.099 162.298C402.899 162.898 401.399 162.498 400.799 161.298C400.199 160.098 400.599 158.598 401.799 157.998C402.999 157.398 404.499 157.798 405.099 158.998C405.699 160.198 405.299 161.698 404.099 162.298Z" fill="#E3CDE4"/>
<path opacity="0.5" d="M437.898 361L410.598 285.1C409.298 281.4 405.198 279.4 401.398 280.8L362.498 294.8C358.798 296.1 358.298 291.7 359.598 295.4L385.398 379.8C386.698 383.5 390.798 385.5 394.598 384.1L433.498 370.1C437.298 368.8 439.198 364.7 437.898 361Z" fill="#948476"/>
<path d="M435.098 361.6L396.198 375.6C392.498 376.9 388.398 375 386.998 371.3L359.698 295.4C358.398 291.7 360.298 287.6 363.998 286.2L402.898 272.2C406.598 270.9 410.698 272.8 412.098 276.5L439.398 352.4C440.698 356.1 438.798 360.2 435.098 361.6Z" fill="#7B7B7B"/>
<path d="M410.068 276.953L361.424 294.459L388.986 371.048L437.63 353.543L410.068 276.953Z" fill="white"/>
<path d="M393.645 278.611L374.545 285.484L375.019 286.802L394.119 279.928L393.645 278.611Z" fill="#E1E1E1"/>
</svg>
