<svg width="26" height="26" viewBox="0 0 26 26" fill="none" xmlns="http://www.w3.org/2000/svg">
<path d="M23.5 0.5H2.5C1.96975 0.500601 1.46139 0.711508 1.08645 1.08645C0.711508 1.46139 0.500601 1.96975 0.5 2.5V23.5C0.500606 24.0302 0.711515 24.5386 1.08646 24.9135C1.4614 25.2885 1.96975 25.4994 2.5 25.5H23.5C24.0302 25.4994 24.5386 25.2885 24.9135 24.9135C25.2885 24.5386 25.4994 24.0302 25.5 23.5V2.5C25.4994 1.96975 25.2885 1.46139 24.9135 1.08645C24.5386 0.711508 24.0302 0.500601 23.5 0.5ZM9 19.0001C9 19.2653 8.89464 19.5197 8.70711 19.7072C8.51957 19.8948 8.26522 20.0001 8 20.0001C7.73478 20.0001 7.48043 19.8948 7.29289 19.7072C7.10536 19.5197 7 19.2653 7 19.0001V11.0001C7 10.7349 7.10536 10.4806 7.29289 10.293C7.48043 10.1055 7.73478 10.0001 8 10.0001C8.26522 10.0001 8.51957 10.1055 8.70711 10.293C8.89464 10.4806 9 10.7349 9 11.0001V19.0001ZM8 8.5C7.70333 8.5 7.41332 8.41203 7.16665 8.2472C6.91997 8.08238 6.72771 7.84811 6.61418 7.57403C6.50065 7.29994 6.47094 6.99834 6.52882 6.70736C6.5867 6.41639 6.72956 6.14912 6.93934 5.93934C7.14912 5.72956 7.41639 5.5867 7.70736 5.52882C7.99834 5.47094 8.29994 5.50065 8.57403 5.61418C8.84811 5.72771 9.08238 5.91997 9.2472 6.16665C9.41203 6.41332 9.5 6.70333 9.5 7C9.5 7.39782 9.34196 7.77936 9.06066 8.06066C8.77936 8.34196 8.39782 8.5 8 8.5ZM20 19.0001C20 19.2653 19.8946 19.5197 19.7071 19.7072C19.5196 19.8948 19.2652 20.0001 19 20.0001C18.7348 20.0001 18.4804 19.8948 18.2929 19.7072C18.1054 19.5197 18 19.2653 18 19.0001V14.5001C18 13.8371 17.7366 13.2012 17.2678 12.7324C16.7989 12.2635 16.163 12.0001 15.5 12.0001C14.837 12.0001 14.2011 12.2635 13.7322 12.7324C13.2634 13.2012 13 13.8371 13 14.5001V19.0001C13 19.2653 12.8946 19.5197 12.7071 19.7072C12.5196 19.8948 12.2652 20.0001 12 20.0001C11.7348 20.0001 11.4804 19.8948 11.2929 19.7072C11.1054 19.5197 11 19.2653 11 19.0001V11.0001C10.9999 10.7543 11.0904 10.5171 11.2542 10.3338C11.418 10.1505 11.6435 10.0339 11.8878 10.0064C12.1321 9.97889 12.3779 10.0424 12.5784 10.1847C12.7788 10.327 12.9198 10.5381 12.9744 10.7778C13.6506 10.3182 14.4394 10.0517 15.2559 10.0069C16.0723 9.96207 16.8855 10.1407 17.608 10.5235C18.3305 10.9063 18.935 11.4788 19.3565 12.1795C19.7779 12.8802 20.0004 13.6825 20 14.5001V19.0001Z" fill="#515151"/>
</svg>
