<svg width="108" height="108" viewBox="0 0 108 108" fill="none" xmlns="http://www.w3.org/2000/svg">
<g filter="url(#filter0_d_786_110)">
<rect x="4" width="100" height="100" rx="10" fill="#FDF7F2"/>
</g>
<path d="M42.24 32.608C42.72 33.984 43.2 35.344 43.68 36.688C44.16 38.032 44.624 39.424 45.072 40.864C44.816 40.928 44.576 41.008 44.352 41.104C44.16 41.2 43.936 41.28 43.68 41.344C43.072 40 42.48 38.912 41.904 38.08C41.36 37.216 40.816 36.528 40.272 36.016C39.568 35.376 38.736 34.944 37.776 34.72C36.816 34.496 35.872 34.384 34.944 34.384C33.088 34.384 31.872 34.528 31.296 34.816C30.656 35.104 30.336 35.68 30.336 36.544V62.032C30.336 62.96 30.688 63.616 31.392 64C32.032 64.352 33.424 64.528 35.568 64.528V66.064H22.032V64.528C23.952 64.528 25.248 64.368 25.92 64.048C26.816 63.632 27.264 62.96 27.264 62.032V36.16C27.264 35.488 27.008 35.024 26.496 34.768C26.016 34.512 25.04 34.384 23.568 34.384C22.448 34.384 21.296 34.48 20.112 34.672C18.96 34.864 17.968 35.312 17.136 36.016C16.784 36.304 16.448 36.656 16.128 37.072C15.808 37.456 15.44 37.968 15.024 38.608C14.768 39.024 14.528 39.44 14.304 39.856C14.08 40.24 13.84 40.656 13.584 41.104C13.392 41.008 13.2 40.928 13.008 40.864C12.848 40.768 12.672 40.672 12.48 40.576C12.96 39.232 13.44 37.904 13.92 36.592C14.4 35.28 14.88 33.952 15.36 32.608H42.24ZM62.6996 29.008C60.1076 35.888 57.5636 42.688 55.0676 49.408C52.6036 56.096 50.0756 62.88 47.4836 69.76H45.1316C47.6596 62.88 50.1716 56.096 52.6676 49.408C55.1636 42.688 57.6756 35.888 60.2036 29.008H62.6996ZM92.5121 32.608C92.9921 33.984 93.4721 35.344 93.9521 36.688C94.4321 38.032 94.8961 39.424 95.3441 40.864C95.0881 40.928 94.8481 41.008 94.6241 41.104C94.4321 41.2 94.2081 41.28 93.9521 41.344C93.3441 40 92.7521 38.912 92.1761 38.08C91.6321 37.216 91.0881 36.528 90.5441 36.016C89.8401 35.376 89.0081 34.944 88.0481 34.72C87.0881 34.496 86.1441 34.384 85.2161 34.384C83.3601 34.384 82.1441 34.528 81.5681 34.816C80.9281 35.104 80.6081 35.68 80.6081 36.544V62.032C80.6081 62.96 80.9601 63.616 81.6641 64C82.3041 64.352 83.6961 64.528 85.8401 64.528V66.064H72.3041V64.528C74.2241 64.528 75.5201 64.368 76.1921 64.048C77.0881 63.632 77.5361 62.96 77.5361 62.032V36.16C77.5361 35.488 77.2801 35.024 76.7681 34.768C76.2881 34.512 75.3121 34.384 73.8401 34.384C72.7201 34.384 71.5681 34.48 70.3841 34.672C69.2321 34.864 68.2401 35.312 67.4081 36.016C67.0561 36.304 66.7201 36.656 66.4001 37.072C66.0801 37.456 65.7121 37.968 65.2961 38.608C65.0401 39.024 64.8001 39.44 64.5761 39.856C64.3521 40.24 64.1121 40.656 63.8561 41.104C63.6641 41.008 63.4721 40.928 63.2801 40.864C63.1201 40.768 62.9441 40.672 62.7521 40.576C63.2321 39.232 63.7121 37.904 64.1921 36.592C64.6721 35.28 65.1521 33.952 65.6321 32.608H92.5121Z" fill="black"/>
<defs>
<filter id="filter0_d_786_110" x="0" y="0" width="108" height="108" filterUnits="userSpaceOnUse" color-interpolation-filters="sRGB">
<feFlood flood-opacity="0" result="BackgroundImageFix"/>
<feColorMatrix in="SourceAlpha" type="matrix" values="0 0 0 0 0 0 0 0 0 0 0 0 0 0 0 0 0 0 127 0" result="hardAlpha"/>
<feOffset dy="4"/>
<feGaussianBlur stdDeviation="2"/>
<feComposite in2="hardAlpha" operator="out"/>
<feColorMatrix type="matrix" values="0 0 0 0 0 0 0 0 0 0 0 0 0 0 0 0 0 0 0.25 0"/>
<feBlend mode="normal" in2="BackgroundImageFix" result="effect1_dropShadow_786_110"/>
<feBlend mode="normal" in="SourceGraphic" in2="effect1_dropShadow_786_110" result="shape"/>
</filter>
</defs>
</svg>
