<svg width="26" height="20" viewBox="0 0 26 20" fill="none" xmlns="http://www.w3.org/2000/svg">
<path d="M25.9988 0.976166C25.9984 0.957673 25.9974 0.93921 25.996 0.920776C25.9948 0.905731 25.9933 0.890788 25.9915 0.875946C25.9894 0.858672 25.9867 0.841491 25.9836 0.82431C25.9809 0.80881 25.9779 0.793426 25.9745 0.778199C25.9708 0.761901 25.9665 0.745757 25.962 0.729645C25.9576 0.714234 25.9532 0.698975 25.9482 0.683895C25.9429 0.668145 25.9371 0.652645 25.931 0.637145C25.9253 0.622314 25.9194 0.607634 25.913 0.5932C25.9061 0.577941 25.8987 0.562956 25.8912 0.548003C25.884 0.533813 25.8766 0.519774 25.8688 0.50598C25.8606 0.49173 25.852 0.477721 25.8431 0.463774C25.8342 0.449706 25.8249 0.435911 25.8153 0.422331C25.8063 0.409545 25.7968 0.397002 25.7871 0.384551C25.7761 0.370544 25.7648 0.356926 25.7531 0.343535C25.7476 0.337217 25.7429 0.330504 25.7372 0.324285C25.7324 0.319035 25.727 0.31458 25.7221 0.309454C25.7101 0.296819 25.6976 0.284704 25.6849 0.27271C25.6731 0.261601 25.6612 0.250585 25.649 0.240118C25.637 0.229868 25.6246 0.220159 25.6121 0.210454C25.5984 0.199829 25.5848 0.189305 25.5707 0.17951C25.5585 0.170995 25.5459 0.163091 25.5333 0.155126C25.5184 0.145726 25.5036 0.136357 25.4883 0.127812C25.475 0.120366 25.4614 0.113623 25.4478 0.106786C25.4327 0.0992488 25.4177 0.0916488 25.4023 0.0849113C25.3874 0.0783188 25.3721 0.0725824 25.3567 0.0667224C25.342 0.0611074 25.3274 0.0554013 25.3125 0.0505176C25.2963 0.0451776 25.2798 0.0407211 25.2633 0.0362048C25.2485 0.0321761 25.2338 0.0281175 25.2189 0.0247912C25.2024 0.0210987 25.1857 0.0182 25.1689 0.0153313C25.1531 0.012645 25.1373 0.0100211 25.1213 0.0080986C25.1055 0.0061761 25.0896 0.00489382 25.0735 0.00373507C25.0561 0.00245257 25.0386 0.00144486 25.0211 0.00107861C25.014 0.000914856 25.0071 0 25 0H1C0.993286 0 0.986816 0.000885057 0.980103 0.00100756C0.96167 0.00137381 0.943237 0.0024112 0.924866 0.0037837C0.909667 0.0049437 0.894592 0.0061338 0.879639 0.00793505C0.862854 0.0099488 0.846191 0.012695 0.829468 0.015595C0.813538 0.018345 0.797607 0.0210574 0.781982 0.0245662C0.766232 0.0280762 0.750732 0.0323486 0.735107 0.0366211C0.719357 0.0409548 0.703614 0.0451962 0.688171 0.0502625C0.672546 0.0553875 0.657171 0.0613401 0.641724 0.0672626C0.627136 0.0728777 0.612488 0.0783699 0.598205 0.0846262C0.582275 0.0916149 0.566705 0.0994885 0.55108 0.107362C0.537955 0.113954 0.52483 0.120393 0.51208 0.127534C0.496455 0.136293 0.481196 0.145909 0.465938 0.15558C0.45373 0.16333 0.441401 0.171021 0.429563 0.179293C0.41522 0.189241 0.401365 0.199917 0.38751 0.210725C0.37518 0.220277 0.362974 0.22986 0.351135 0.239991C0.338806 0.25052 0.326904 0.261597 0.314941 0.272859C0.302307 0.284761 0.289918 0.296846 0.277893 0.309389C0.27301 0.314546 0.267642 0.319032 0.262817 0.324281C0.257141 0.330506 0.25238 0.33722 0.246887 0.343531C0.23523 0.356929 0.223878 0.37054 0.212888 0.384548C0.203184 0.396999 0.193723 0.409548 0.18469 0.422328C0.175046 0.435908 0.16583 0.449702 0.156857 0.46377C0.148007 0.477717 0.139401 0.491725 0.131222 0.505976C0.12341 0.51977 0.116025 0.533809 0.108824 0.547999C0.101255 0.562953 0.09387 0.577938 0.0870337 0.593196C0.080625 0.60763 0.0747051 0.62231 0.0689676 0.637141C0.0629251 0.652641 0.057065 0.668141 0.0518162 0.683891C0.0468162 0.698968 0.0423563 0.714226 0.0380225 0.729641C0.0335063 0.745754 0.0292338 0.761897 0.0255101 0.778195C0.0220926 0.793422 0.0191013 0.808804 0.016355 0.824306C0.0133038 0.841488 0.0106176 0.858669 0.00848007 0.875943C0.00664674 0.890804 0.00516165 0.905748 0.00402498 0.920773C0.00255998 0.939236 0.00162427 0.957699 0.0012176 0.976162C0.0010376 0.984161 0 0.991944 0 1V18C0.000606423 18.5302 0.211515 19.0386 0.586456 19.4135C0.961398 19.7885 1.46975 19.9994 2 20H24C24.5302 19.9994 25.0386 19.7885 25.4135 19.4135C25.7885 19.0386 25.9994 18.5302 26 18V1C26 0.991944 25.999 0.984161 25.9988 0.976166ZM2 3.27328L9.33826 10L2 16.7267V3.27328ZM3.57092 18L10.8182 11.3567L12.3242 12.7372C12.5087 12.9062 12.7498 13 13 13C13.2502 13 13.4913 12.9062 13.6758 12.7372L15.1818 11.3566L22.4291 18H3.57092ZM16.6618 10L24.0002 3.2731L24.0012 16.7277L16.6618 10Z" fill="#515151"/>
</svg>
